<?xml version="1.0" encoding="utf-8" standalone="no"?>
<!DOCTYPE svg PUBLIC "-//W3C//DTD SVG 1.1//EN"
  "http://www.w3.org/Graphics/SVG/1.1/DTD/svg11.dtd">
<svg xmlns:xlink="http://www.w3.org/1999/xlink" width="1094.4pt" height="338.4pt" viewBox="0 0 1094.4 338.4" xmlns="http://www.w3.org/2000/svg" version="1.1">
 <metadata>
  <rdf:RDF xmlns:dc="http://purl.org/dc/elements/1.1/" xmlns:cc="http://creativecommons.org/ns#" xmlns:rdf="http://www.w3.org/1999/02/22-rdf-syntax-ns#">
   <cc:Work>
    <dc:type rdf:resource="http://purl.org/dc/dcmitype/StillImage"/>
    <dc:date>2026-10-01T03:44:05.566392</dc:date>
    <dc:format>image/svg+xml</dc:format>
    <dc:creator>
     <cc:Agent>
      <dc:title>Matplotlib v3.9.4, https://matplotlib.org/</dc:title>
     </cc:Agent>
    </dc:creator>
   </cc:Work>
  </rdf:RDF>
 </metadata>
 <defs>
  <style type="text/css">*{stroke-linejoin: round; stroke-linecap: butt}</style>
 </defs>
 <g id="figure_1">
  <g id="patch_1">
   <path d="M 0 338.4 
L 1094.4 338.4 
L 1094.4 0 
L 0 0 
z
" style="fill: #ffffff"/>
  </g>
  <g id="axes_1">
   <g id="patch_2">
    <path d="M 47.72 269.368 
L 383.48 269.368 
L 383.48 62.352 
L 47.72 62.352 
z
" style="fill: #ffffff"/>
   </g>
   <g id="matplotlib.axis_1">
    <g id="xtick_1">
     <g id="line2d_1">
      <path d="M 47.72 269.368 
L 47.72 62.352 
" clip-path="url(#p59fd0a2545)" style="fill: none; stroke: #b0b0b0; stroke-opacity: 0.25; stroke-width: 0.7; stroke-linecap: square"/>
     </g>
     <g id="line2d_2">
      <defs>
       <path id="mfe486146e8" d="M 0 0 
L 0 3.5 
" style="stroke: #000000; stroke-width: 0.8"/>
      </defs>
      <g>
       <use xlink:href="#mfe486146e8" x="47.72" y="269.368" style="stroke: #000000; stroke-width: 0.8"/>
      </g>
     </g>
     <g id="text_1">
      <!-- 0 -->
      <g transform="translate(44.53875 283.966437) scale(0.1 -0.1)">
       <defs>
        <path id="DejaVuSans-30" d="M 2034 4250 
Q 1547 4250 1301 3770 
Q 1056 3291 1056 2328 
Q 1056 1369 1301 889 
Q 1547 409 2034 409 
Q 2525 409 2770 889 
Q 3016 1369 3016 2328 
Q 3016 3291 2770 3770 
Q 2525 4250 2034 4250 
z
M 2034 4750 
Q 2819 4750 3233 4129 
Q 3647 3509 3647 2328 
Q 3647 1150 3233 529 
Q 2819 -91 2034 -91 
Q 1250 -91 836 529 
Q 422 1150 422 2328 
Q 422 3509 836 4129 
Q 1250 4750 2034 4750 
z
" transform="scale(0.015625)"/>
       </defs>
       <use xlink:href="#DejaVuSans-30"/>
      </g>
     </g>
    </g>
    <g id="xtick_2">
     <g id="line2d_3">
      <path d="M 100.452127 269.368 
L 100.452127 62.352 
" clip-path="url(#p59fd0a2545)" style="fill: none; stroke: #b0b0b0; stroke-opacity: 0.25; stroke-width: 0.7; stroke-linecap: square"/>
     </g>
     <g id="line2d_4">
      <g>
       <use xlink:href="#mfe486146e8" x="100.452127" y="269.368" style="stroke: #000000; stroke-width: 0.8"/>
      </g>
     </g>
     <g id="text_2">
      <!-- 2 -->
      <g transform="translate(97.270877 283.966437) scale(0.1 -0.1)">
       <defs>
        <path id="DejaVuSans-32" d="M 1228 531 
L 3431 531 
L 3431 0 
L 469 0 
L 469 531 
Q 828 903 1448 1529 
Q 2069 2156 2228 2338 
Q 2531 2678 2651 2914 
Q 2772 3150 2772 3378 
Q 2772 3750 2511 3984 
Q 2250 4219 1831 4219 
Q 1534 4219 1204 4116 
Q 875 4013 500 3803 
L 500 4441 
Q 881 4594 1212 4672 
Q 1544 4750 1819 4750 
Q 2544 4750 2975 4387 
Q 3406 4025 3406 3419 
Q 3406 3131 3298 2873 
Q 3191 2616 2906 2266 
Q 2828 2175 2409 1742 
Q 1991 1309 1228 531 
z
" transform="scale(0.015625)"/>
       </defs>
       <use xlink:href="#DejaVuSans-32"/>
      </g>
     </g>
    </g>
    <g id="xtick_3">
     <g id="line2d_5">
      <path d="M 153.184255 269.368 
L 153.184255 62.352 
" clip-path="url(#p59fd0a2545)" style="fill: none; stroke: #b0b0b0; stroke-opacity: 0.25; stroke-width: 0.7; stroke-linecap: square"/>
     </g>
     <g id="line2d_6">
      <g>
       <use xlink:href="#mfe486146e8" x="153.184255" y="269.368" style="stroke: #000000; stroke-width: 0.8"/>
      </g>
     </g>
     <g id="text_3">
      <!-- 4 -->
      <g transform="translate(150.003005 283.966437) scale(0.1 -0.1)">
       <defs>
        <path id="DejaVuSans-34" d="M 2419 4116 
L 825 1625 
L 2419 1625 
L 2419 4116 
z
M 2253 4666 
L 3047 4666 
L 3047 1625 
L 3713 1625 
L 3713 1100 
L 3047 1100 
L 3047 0 
L 2419 0 
L 2419 1100 
L 313 1100 
L 313 1709 
L 2253 4666 
z
" transform="scale(0.015625)"/>
       </defs>
       <use xlink:href="#DejaVuSans-34"/>
      </g>
     </g>
    </g>
    <g id="xtick_4">
     <g id="line2d_7">
      <path d="M 205.916382 269.368 
L 205.916382 62.352 
" clip-path="url(#p59fd0a2545)" style="fill: none; stroke: #b0b0b0; stroke-opacity: 0.25; stroke-width: 0.7; stroke-linecap: square"/>
     </g>
     <g id="line2d_8">
      <g>
       <use xlink:href="#mfe486146e8" x="205.916382" y="269.368" style="stroke: #000000; stroke-width: 0.8"/>
      </g>
     </g>
     <g id="text_4">
      <!-- 6 -->
      <g transform="translate(202.735132 283.966437) scale(0.1 -0.1)">
       <defs>
        <path id="DejaVuSans-36" d="M 2113 2584 
Q 1688 2584 1439 2293 
Q 1191 2003 1191 1497 
Q 1191 994 1439 701 
Q 1688 409 2113 409 
Q 2538 409 2786 701 
Q 3034 994 3034 1497 
Q 3034 2003 2786 2293 
Q 2538 2584 2113 2584 
z
M 3366 4563 
L 3366 3988 
Q 3128 4100 2886 4159 
Q 2644 4219 2406 4219 
Q 1781 4219 1451 3797 
Q 1122 3375 1075 2522 
Q 1259 2794 1537 2939 
Q 1816 3084 2150 3084 
Q 2853 3084 3261 2657 
Q 3669 2231 3669 1497 
Q 3669 778 3244 343 
Q 2819 -91 2113 -91 
Q 1303 -91 875 529 
Q 447 1150 447 2328 
Q 447 3434 972 4092 
Q 1497 4750 2381 4750 
Q 2619 4750 2861 4703 
Q 3103 4656 3366 4563 
z
" transform="scale(0.015625)"/>
       </defs>
       <use xlink:href="#DejaVuSans-36"/>
      </g>
     </g>
    </g>
    <g id="xtick_5">
     <g id="line2d_9">
      <path d="M 258.64851 269.368 
L 258.64851 62.352 
" clip-path="url(#p59fd0a2545)" style="fill: none; stroke: #b0b0b0; stroke-opacity: 0.25; stroke-width: 0.7; stroke-linecap: square"/>
     </g>
     <g id="line2d_10">
      <g>
       <use xlink:href="#mfe486146e8" x="258.64851" y="269.368" style="stroke: #000000; stroke-width: 0.8"/>
      </g>
     </g>
     <g id="text_5">
      <!-- 8 -->
      <g transform="translate(255.46726 283.966437) scale(0.1 -0.1)">
       <defs>
        <path id="DejaVuSans-38" d="M 2034 2216 
Q 1584 2216 1326 1975 
Q 1069 1734 1069 1313 
Q 1069 891 1326 650 
Q 1584 409 2034 409 
Q 2484 409 2743 651 
Q 3003 894 3003 1313 
Q 3003 1734 2745 1975 
Q 2488 2216 2034 2216 
z
M 1403 2484 
Q 997 2584 770 2862 
Q 544 3141 544 3541 
Q 544 4100 942 4425 
Q 1341 4750 2034 4750 
Q 2731 4750 3128 4425 
Q 3525 4100 3525 3541 
Q 3525 3141 3298 2862 
Q 3072 2584 2669 2484 
Q 3125 2378 3379 2068 
Q 3634 1759 3634 1313 
Q 3634 634 3220 271 
Q 2806 -91 2034 -91 
Q 1263 -91 848 271 
Q 434 634 434 1313 
Q 434 1759 690 2068 
Q 947 2378 1403 2484 
z
M 1172 3481 
Q 1172 3119 1398 2916 
Q 1625 2713 2034 2713 
Q 2441 2713 2670 2916 
Q 2900 3119 2900 3481 
Q 2900 3844 2670 4047 
Q 2441 4250 2034 4250 
Q 1625 4250 1398 4047 
Q 1172 3844 1172 3481 
z
" transform="scale(0.015625)"/>
       </defs>
       <use xlink:href="#DejaVuSans-38"/>
      </g>
     </g>
    </g>
    <g id="xtick_6">
     <g id="line2d_11">
      <path d="M 311.380637 269.368 
L 311.380637 62.352 
" clip-path="url(#p59fd0a2545)" style="fill: none; stroke: #b0b0b0; stroke-opacity: 0.25; stroke-width: 0.7; stroke-linecap: square"/>
     </g>
     <g id="line2d_12">
      <g>
       <use xlink:href="#mfe486146e8" x="311.380637" y="269.368" style="stroke: #000000; stroke-width: 0.8"/>
      </g>
     </g>
     <g id="text_6">
      <!-- 10 -->
      <g transform="translate(305.018137 283.966437) scale(0.1 -0.1)">
       <defs>
        <path id="DejaVuSans-31" d="M 794 531 
L 1825 531 
L 1825 4091 
L 703 3866 
L 703 4441 
L 1819 4666 
L 2450 4666 
L 2450 531 
L 3481 531 
L 3481 0 
L 794 0 
L 794 531 
z
" transform="scale(0.015625)"/>
       </defs>
       <use xlink:href="#DejaVuSans-31"/>
       <use xlink:href="#DejaVuSans-30" x="63.623047"/>
      </g>
     </g>
    </g>
    <g id="xtick_7">
     <g id="line2d_13">
      <path d="M 364.112764 269.368 
L 364.112764 62.352 
" clip-path="url(#p59fd0a2545)" style="fill: none; stroke: #b0b0b0; stroke-opacity: 0.25; stroke-width: 0.7; stroke-linecap: square"/>
     </g>
     <g id="line2d_14">
      <g>
       <use xlink:href="#mfe486146e8" x="364.112764" y="269.368" style="stroke: #000000; stroke-width: 0.8"/>
      </g>
     </g>
     <g id="text_7">
      <!-- 12 -->
      <g transform="translate(357.750264 283.966437) scale(0.1 -0.1)">
       <use xlink:href="#DejaVuSans-31"/>
       <use xlink:href="#DejaVuSans-32" x="63.623047"/>
      </g>
     </g>
    </g>
    <g id="text_8">
     <!-- Largest inter-output gap per request (s) -->
     <g transform="translate(116.071875 297.644563) scale(0.1 -0.1)">
      <defs>
       <path id="DejaVuSans-4c" d="M 628 4666 
L 1259 4666 
L 1259 531 
L 3531 531 
L 3531 0 
L 628 0 
L 628 4666 
z
" transform="scale(0.015625)"/>
       <path id="DejaVuSans-61" d="M 2194 1759 
Q 1497 1759 1228 1600 
Q 959 1441 959 1056 
Q 959 750 1161 570 
Q 1363 391 1709 391 
Q 2188 391 2477 730 
Q 2766 1069 2766 1631 
L 2766 1759 
L 2194 1759 
z
M 3341 1997 
L 3341 0 
L 2766 0 
L 2766 531 
Q 2569 213 2275 61 
Q 1981 -91 1556 -91 
Q 1019 -91 701 211 
Q 384 513 384 1019 
Q 384 1609 779 1909 
Q 1175 2209 1959 2209 
L 2766 2209 
L 2766 2266 
Q 2766 2663 2505 2880 
Q 2244 3097 1772 3097 
Q 1472 3097 1187 3025 
Q 903 2953 641 2809 
L 641 3341 
Q 956 3463 1253 3523 
Q 1550 3584 1831 3584 
Q 2591 3584 2966 3190 
Q 3341 2797 3341 1997 
z
" transform="scale(0.015625)"/>
       <path id="DejaVuSans-72" d="M 2631 2963 
Q 2534 3019 2420 3045 
Q 2306 3072 2169 3072 
Q 1681 3072 1420 2755 
Q 1159 2438 1159 1844 
L 1159 0 
L 581 0 
L 581 3500 
L 1159 3500 
L 1159 2956 
Q 1341 3275 1631 3429 
Q 1922 3584 2338 3584 
Q 2397 3584 2469 3576 
Q 2541 3569 2628 3553 
L 2631 2963 
z
" transform="scale(0.015625)"/>
       <path id="DejaVuSans-67" d="M 2906 1791 
Q 2906 2416 2648 2759 
Q 2391 3103 1925 3103 
Q 1463 3103 1205 2759 
Q 947 2416 947 1791 
Q 947 1169 1205 825 
Q 1463 481 1925 481 
Q 2391 481 2648 825 
Q 2906 1169 2906 1791 
z
M 3481 434 
Q 3481 -459 3084 -895 
Q 2688 -1331 1869 -1331 
Q 1566 -1331 1297 -1286 
Q 1028 -1241 775 -1147 
L 775 -588 
Q 1028 -725 1275 -790 
Q 1522 -856 1778 -856 
Q 2344 -856 2625 -561 
Q 2906 -266 2906 331 
L 2906 616 
Q 2728 306 2450 153 
Q 2172 0 1784 0 
Q 1141 0 747 490 
Q 353 981 353 1791 
Q 353 2603 747 3093 
Q 1141 3584 1784 3584 
Q 2172 3584 2450 3431 
Q 2728 3278 2906 2969 
L 2906 3500 
L 3481 3500 
L 3481 434 
z
" transform="scale(0.015625)"/>
       <path id="DejaVuSans-65" d="M 3597 1894 
L 3597 1613 
L 953 1613 
Q 991 1019 1311 708 
Q 1631 397 2203 397 
Q 2534 397 2845 478 
Q 3156 559 3463 722 
L 3463 178 
Q 3153 47 2828 -22 
Q 2503 -91 2169 -91 
Q 1331 -91 842 396 
Q 353 884 353 1716 
Q 353 2575 817 3079 
Q 1281 3584 2069 3584 
Q 2775 3584 3186 3129 
Q 3597 2675 3597 1894 
z
M 3022 2063 
Q 3016 2534 2758 2815 
Q 2500 3097 2075 3097 
Q 1594 3097 1305 2825 
Q 1016 2553 972 2059 
L 3022 2063 
z
" transform="scale(0.015625)"/>
       <path id="DejaVuSans-73" d="M 2834 3397 
L 2834 2853 
Q 2591 2978 2328 3040 
Q 2066 3103 1784 3103 
Q 1356 3103 1142 2972 
Q 928 2841 928 2578 
Q 928 2378 1081 2264 
Q 1234 2150 1697 2047 
L 1894 2003 
Q 2506 1872 2764 1633 
Q 3022 1394 3022 966 
Q 3022 478 2636 193 
Q 2250 -91 1575 -91 
Q 1294 -91 989 -36 
Q 684 19 347 128 
L 347 722 
Q 666 556 975 473 
Q 1284 391 1588 391 
Q 1994 391 2212 530 
Q 2431 669 2431 922 
Q 2431 1156 2273 1281 
Q 2116 1406 1581 1522 
L 1381 1569 
Q 847 1681 609 1914 
Q 372 2147 372 2553 
Q 372 3047 722 3315 
Q 1072 3584 1716 3584 
Q 2034 3584 2315 3537 
Q 2597 3491 2834 3397 
z
" transform="scale(0.015625)"/>
       <path id="DejaVuSans-74" d="M 1172 4494 
L 1172 3500 
L 2356 3500 
L 2356 3053 
L 1172 3053 
L 1172 1153 
Q 1172 725 1289 603 
Q 1406 481 1766 481 
L 2356 481 
L 2356 0 
L 1766 0 
Q 1100 0 847 248 
Q 594 497 594 1153 
L 594 3053 
L 172 3053 
L 172 3500 
L 594 3500 
L 594 4494 
L 1172 4494 
z
" transform="scale(0.015625)"/>
       <path id="DejaVuSans-20" transform="scale(0.015625)"/>
       <path id="DejaVuSans-69" d="M 603 3500 
L 1178 3500 
L 1178 0 
L 603 0 
L 603 3500 
z
M 603 4863 
L 1178 4863 
L 1178 4134 
L 603 4134 
L 603 4863 
z
" transform="scale(0.015625)"/>
       <path id="DejaVuSans-6e" d="M 3513 2113 
L 3513 0 
L 2938 0 
L 2938 2094 
Q 2938 2591 2744 2837 
Q 2550 3084 2163 3084 
Q 1697 3084 1428 2787 
Q 1159 2491 1159 1978 
L 1159 0 
L 581 0 
L 581 3500 
L 1159 3500 
L 1159 2956 
Q 1366 3272 1645 3428 
Q 1925 3584 2291 3584 
Q 2894 3584 3203 3211 
Q 3513 2838 3513 2113 
z
" transform="scale(0.015625)"/>
       <path id="DejaVuSans-2d" d="M 313 2009 
L 1997 2009 
L 1997 1497 
L 313 1497 
L 313 2009 
z
" transform="scale(0.015625)"/>
       <path id="DejaVuSans-6f" d="M 1959 3097 
Q 1497 3097 1228 2736 
Q 959 2375 959 1747 
Q 959 1119 1226 758 
Q 1494 397 1959 397 
Q 2419 397 2687 759 
Q 2956 1122 2956 1747 
Q 2956 2369 2687 2733 
Q 2419 3097 1959 3097 
z
M 1959 3584 
Q 2709 3584 3137 3096 
Q 3566 2609 3566 1747 
Q 3566 888 3137 398 
Q 2709 -91 1959 -91 
Q 1206 -91 779 398 
Q 353 888 353 1747 
Q 353 2609 779 3096 
Q 1206 3584 1959 3584 
z
" transform="scale(0.015625)"/>
       <path id="DejaVuSans-75" d="M 544 1381 
L 544 3500 
L 1119 3500 
L 1119 1403 
Q 1119 906 1312 657 
Q 1506 409 1894 409 
Q 2359 409 2629 706 
Q 2900 1003 2900 1516 
L 2900 3500 
L 3475 3500 
L 3475 0 
L 2900 0 
L 2900 538 
Q 2691 219 2414 64 
Q 2138 -91 1772 -91 
Q 1169 -91 856 284 
Q 544 659 544 1381 
z
M 1991 3584 
L 1991 3584 
z
" transform="scale(0.015625)"/>
       <path id="DejaVuSans-70" d="M 1159 525 
L 1159 -1331 
L 581 -1331 
L 581 3500 
L 1159 3500 
L 1159 2969 
Q 1341 3281 1617 3432 
Q 1894 3584 2278 3584 
Q 2916 3584 3314 3078 
Q 3713 2572 3713 1747 
Q 3713 922 3314 415 
Q 2916 -91 2278 -91 
Q 1894 -91 1617 61 
Q 1341 213 1159 525 
z
M 3116 1747 
Q 3116 2381 2855 2742 
Q 2594 3103 2138 3103 
Q 1681 3103 1420 2742 
Q 1159 2381 1159 1747 
Q 1159 1113 1420 752 
Q 1681 391 2138 391 
Q 2594 391 2855 752 
Q 3116 1113 3116 1747 
z
" transform="scale(0.015625)"/>
       <path id="DejaVuSans-71" d="M 947 1747 
Q 947 1113 1208 752 
Q 1469 391 1925 391 
Q 2381 391 2643 752 
Q 2906 1113 2906 1747 
Q 2906 2381 2643 2742 
Q 2381 3103 1925 3103 
Q 1469 3103 1208 2742 
Q 947 2381 947 1747 
z
M 2906 525 
Q 2725 213 2448 61 
Q 2172 -91 1784 -91 
Q 1150 -91 751 415 
Q 353 922 353 1747 
Q 353 2572 751 3078 
Q 1150 3584 1784 3584 
Q 2172 3584 2448 3432 
Q 2725 3281 2906 2969 
L 2906 3500 
L 3481 3500 
L 3481 -1331 
L 2906 -1331 
L 2906 525 
z
" transform="scale(0.015625)"/>
       <path id="DejaVuSans-28" d="M 1984 4856 
Q 1566 4138 1362 3434 
Q 1159 2731 1159 2009 
Q 1159 1288 1364 580 
Q 1569 -128 1984 -844 
L 1484 -844 
Q 1016 -109 783 600 
Q 550 1309 550 2009 
Q 550 2706 781 3412 
Q 1013 4119 1484 4856 
L 1984 4856 
z
" transform="scale(0.015625)"/>
       <path id="DejaVuSans-29" d="M 513 4856 
L 1013 4856 
Q 1481 4119 1714 3412 
Q 1947 2706 1947 2009 
Q 1947 1309 1714 600 
Q 1481 -109 1013 -844 
L 513 -844 
Q 928 -128 1133 580 
Q 1338 1288 1338 2009 
Q 1338 2731 1133 3434 
Q 928 4138 513 4856 
z
" transform="scale(0.015625)"/>
      </defs>
      <use xlink:href="#DejaVuSans-4c"/>
      <use xlink:href="#DejaVuSans-61" x="55.712891"/>
      <use xlink:href="#DejaVuSans-72" x="116.992188"/>
      <use xlink:href="#DejaVuSans-67" x="156.355469"/>
      <use xlink:href="#DejaVuSans-65" x="219.832031"/>
      <use xlink:href="#DejaVuSans-73" x="281.355469"/>
      <use xlink:href="#DejaVuSans-74" x="333.455078"/>
      <use xlink:href="#DejaVuSans-20" x="372.664062"/>
      <use xlink:href="#DejaVuSans-69" x="404.451172"/>
      <use xlink:href="#DejaVuSans-6e" x="432.234375"/>
      <use xlink:href="#DejaVuSans-74" x="495.613281"/>
      <use xlink:href="#DejaVuSans-65" x="534.822266"/>
      <use xlink:href="#DejaVuSans-72" x="596.345703"/>
      <use xlink:href="#DejaVuSans-2d" x="631.083984"/>
      <use xlink:href="#DejaVuSans-6f" x="669.042969"/>
      <use xlink:href="#DejaVuSans-75" x="730.224609"/>
      <use xlink:href="#DejaVuSans-74" x="793.603516"/>
      <use xlink:href="#DejaVuSans-70" x="832.8125"/>
      <use xlink:href="#DejaVuSans-75" x="896.289062"/>
      <use xlink:href="#DejaVuSans-74" x="959.667969"/>
      <use xlink:href="#DejaVuSans-20" x="998.876953"/>
      <use xlink:href="#DejaVuSans-67" x="1030.664062"/>
      <use xlink:href="#DejaVuSans-61" x="1094.140625"/>
      <use xlink:href="#DejaVuSans-70" x="1155.419922"/>
      <use xlink:href="#DejaVuSans-20" x="1218.896484"/>
      <use xlink:href="#DejaVuSans-70" x="1250.683594"/>
      <use xlink:href="#DejaVuSans-65" x="1314.160156"/>
      <use xlink:href="#DejaVuSans-72" x="1375.683594"/>
      <use xlink:href="#DejaVuSans-20" x="1416.796875"/>
      <use xlink:href="#DejaVuSans-72" x="1448.583984"/>
      <use xlink:href="#DejaVuSans-65" x="1487.447266"/>
      <use xlink:href="#DejaVuSans-71" x="1548.970703"/>
      <use xlink:href="#DejaVuSans-75" x="1612.447266"/>
      <use xlink:href="#DejaVuSans-65" x="1675.826172"/>
      <use xlink:href="#DejaVuSans-73" x="1737.349609"/>
      <use xlink:href="#DejaVuSans-74" x="1789.449219"/>
      <use xlink:href="#DejaVuSans-20" x="1828.658203"/>
      <use xlink:href="#DejaVuSans-28" x="1860.445312"/>
      <use xlink:href="#DejaVuSans-73" x="1899.458984"/>
      <use xlink:href="#DejaVuSans-29" x="1951.558594"/>
     </g>
    </g>
   </g>
   <g id="matplotlib.axis_2">
    <g id="ytick_1">
     <g id="line2d_15">
      <path d="M 47.72 269.368 
L 383.48 269.368 
" clip-path="url(#p59fd0a2545)" style="fill: none; stroke: #b0b0b0; stroke-opacity: 0.25; stroke-width: 0.7; stroke-linecap: square"/>
     </g>
     <g id="line2d_16">
      <defs>
       <path id="m95f5a29e44" d="M 0 0 
L -3.5 0 
" style="stroke: #000000; stroke-width: 0.8"/>
      </defs>
      <g>
       <use xlink:href="#m95f5a29e44" x="47.72" y="269.368" style="stroke: #000000; stroke-width: 0.8"/>
      </g>
     </g>
     <g id="text_9">
      <!-- 0.0 -->
      <g transform="translate(24.816875 273.167219) scale(0.1 -0.1)">
       <defs>
        <path id="DejaVuSans-2e" d="M 684 794 
L 1344 794 
L 1344 0 
L 684 0 
L 684 794 
z
" transform="scale(0.015625)"/>
       </defs>
       <use xlink:href="#DejaVuSans-30"/>
       <use xlink:href="#DejaVuSans-2e" x="63.623047"/>
       <use xlink:href="#DejaVuSans-30" x="95.410156"/>
      </g>
     </g>
    </g>
    <g id="ytick_2">
     <g id="line2d_17">
      <path d="M 47.72 228.974634 
L 383.48 228.974634 
" clip-path="url(#p59fd0a2545)" style="fill: none; stroke: #b0b0b0; stroke-opacity: 0.25; stroke-width: 0.7; stroke-linecap: square"/>
     </g>
     <g id="line2d_18">
      <g>
       <use xlink:href="#m95f5a29e44" x="47.72" y="228.974634" style="stroke: #000000; stroke-width: 0.8"/>
      </g>
     </g>
     <g id="text_10">
      <!-- 0.2 -->
      <g transform="translate(24.816875 232.773853) scale(0.1 -0.1)">
       <use xlink:href="#DejaVuSans-30"/>
       <use xlink:href="#DejaVuSans-2e" x="63.623047"/>
       <use xlink:href="#DejaVuSans-32" x="95.410156"/>
      </g>
     </g>
    </g>
    <g id="ytick_3">
     <g id="line2d_19">
      <path d="M 47.72 188.581268 
L 383.48 188.581268 
" clip-path="url(#p59fd0a2545)" style="fill: none; stroke: #b0b0b0; stroke-opacity: 0.25; stroke-width: 0.7; stroke-linecap: square"/>
     </g>
     <g id="line2d_20">
      <g>
       <use xlink:href="#m95f5a29e44" x="47.72" y="188.581268" style="stroke: #000000; stroke-width: 0.8"/>
      </g>
     </g>
     <g id="text_11">
      <!-- 0.4 -->
      <g transform="translate(24.816875 192.380487) scale(0.1 -0.1)">
       <use xlink:href="#DejaVuSans-30"/>
       <use xlink:href="#DejaVuSans-2e" x="63.623047"/>
       <use xlink:href="#DejaVuSans-34" x="95.410156"/>
      </g>
     </g>
    </g>
    <g id="ytick_4">
     <g id="line2d_21">
      <path d="M 47.72 148.187902 
L 383.48 148.187902 
" clip-path="url(#p59fd0a2545)" style="fill: none; stroke: #b0b0b0; stroke-opacity: 0.25; stroke-width: 0.7; stroke-linecap: square"/>
     </g>
     <g id="line2d_22">
      <g>
       <use xlink:href="#m95f5a29e44" x="47.72" y="148.187902" style="stroke: #000000; stroke-width: 0.8"/>
      </g>
     </g>
     <g id="text_12">
      <!-- 0.6 -->
      <g transform="translate(24.816875 151.987121) scale(0.1 -0.1)">
       <use xlink:href="#DejaVuSans-30"/>
       <use xlink:href="#DejaVuSans-2e" x="63.623047"/>
       <use xlink:href="#DejaVuSans-36" x="95.410156"/>
      </g>
     </g>
    </g>
    <g id="ytick_5">
     <g id="line2d_23">
      <path d="M 47.72 107.794537 
L 383.48 107.794537 
" clip-path="url(#p59fd0a2545)" style="fill: none; stroke: #b0b0b0; stroke-opacity: 0.25; stroke-width: 0.7; stroke-linecap: square"/>
     </g>
     <g id="line2d_24">
      <g>
       <use xlink:href="#m95f5a29e44" x="47.72" y="107.794537" style="stroke: #000000; stroke-width: 0.8"/>
      </g>
     </g>
     <g id="text_13">
      <!-- 0.8 -->
      <g transform="translate(24.816875 111.593755) scale(0.1 -0.1)">
       <use xlink:href="#DejaVuSans-30"/>
       <use xlink:href="#DejaVuSans-2e" x="63.623047"/>
       <use xlink:href="#DejaVuSans-38" x="95.410156"/>
      </g>
     </g>
    </g>
    <g id="ytick_6">
     <g id="line2d_25">
      <path d="M 47.72 67.401171 
L 383.48 67.401171 
" clip-path="url(#p59fd0a2545)" style="fill: none; stroke: #b0b0b0; stroke-opacity: 0.25; stroke-width: 0.7; stroke-linecap: square"/>
     </g>
     <g id="line2d_26">
      <g>
       <use xlink:href="#m95f5a29e44" x="47.72" y="67.401171" style="stroke: #000000; stroke-width: 0.8"/>
      </g>
     </g>
     <g id="text_14">
      <!-- 1.0 -->
      <g transform="translate(24.816875 71.200389) scale(0.1 -0.1)">
       <use xlink:href="#DejaVuSans-31"/>
       <use xlink:href="#DejaVuSans-2e" x="63.623047"/>
       <use xlink:href="#DejaVuSans-30" x="95.410156"/>
      </g>
     </g>
    </g>
    <g id="text_15">
     <!-- Fraction of completed requests -->
     <g transform="translate(18.737187 243.544375) rotate(-90) scale(0.1 -0.1)">
      <defs>
       <path id="DejaVuSans-46" d="M 628 4666 
L 3309 4666 
L 3309 4134 
L 1259 4134 
L 1259 2759 
L 3109 2759 
L 3109 2228 
L 1259 2228 
L 1259 0 
L 628 0 
L 628 4666 
z
" transform="scale(0.015625)"/>
       <path id="DejaVuSans-63" d="M 3122 3366 
L 3122 2828 
Q 2878 2963 2633 3030 
Q 2388 3097 2138 3097 
Q 1578 3097 1268 2742 
Q 959 2388 959 1747 
Q 959 1106 1268 751 
Q 1578 397 2138 397 
Q 2388 397 2633 464 
Q 2878 531 3122 666 
L 3122 134 
Q 2881 22 2623 -34 
Q 2366 -91 2075 -91 
Q 1284 -91 818 406 
Q 353 903 353 1747 
Q 353 2603 823 3093 
Q 1294 3584 2113 3584 
Q 2378 3584 2631 3529 
Q 2884 3475 3122 3366 
z
" transform="scale(0.015625)"/>
       <path id="DejaVuSans-66" d="M 2375 4863 
L 2375 4384 
L 1825 4384 
Q 1516 4384 1395 4259 
Q 1275 4134 1275 3809 
L 1275 3500 
L 2222 3500 
L 2222 3053 
L 1275 3053 
L 1275 0 
L 697 0 
L 697 3053 
L 147 3053 
L 147 3500 
L 697 3500 
L 697 3744 
Q 697 4328 969 4595 
Q 1241 4863 1831 4863 
L 2375 4863 
z
" transform="scale(0.015625)"/>
       <path id="DejaVuSans-6d" d="M 3328 2828 
Q 3544 3216 3844 3400 
Q 4144 3584 4550 3584 
Q 5097 3584 5394 3201 
Q 5691 2819 5691 2113 
L 5691 0 
L 5113 0 
L 5113 2094 
Q 5113 2597 4934 2840 
Q 4756 3084 4391 3084 
Q 3944 3084 3684 2787 
Q 3425 2491 3425 1978 
L 3425 0 
L 2847 0 
L 2847 2094 
Q 2847 2600 2669 2842 
Q 2491 3084 2119 3084 
Q 1678 3084 1418 2786 
Q 1159 2488 1159 1978 
L 1159 0 
L 581 0 
L 581 3500 
L 1159 3500 
L 1159 2956 
Q 1356 3278 1631 3431 
Q 1906 3584 2284 3584 
Q 2666 3584 2933 3390 
Q 3200 3197 3328 2828 
z
" transform="scale(0.015625)"/>
       <path id="DejaVuSans-6c" d="M 603 4863 
L 1178 4863 
L 1178 0 
L 603 0 
L 603 4863 
z
" transform="scale(0.015625)"/>
       <path id="DejaVuSans-64" d="M 2906 2969 
L 2906 4863 
L 3481 4863 
L 3481 0 
L 2906 0 
L 2906 525 
Q 2725 213 2448 61 
Q 2172 -91 1784 -91 
Q 1150 -91 751 415 
Q 353 922 353 1747 
Q 353 2572 751 3078 
Q 1150 3584 1784 3584 
Q 2172 3584 2448 3432 
Q 2725 3281 2906 2969 
z
M 947 1747 
Q 947 1113 1208 752 
Q 1469 391 1925 391 
Q 2381 391 2643 752 
Q 2906 1113 2906 1747 
Q 2906 2381 2643 2742 
Q 2381 3103 1925 3103 
Q 1469 3103 1208 2742 
Q 947 2381 947 1747 
z
" transform="scale(0.015625)"/>
      </defs>
      <use xlink:href="#DejaVuSans-46"/>
      <use xlink:href="#DejaVuSans-72" x="50.269531"/>
      <use xlink:href="#DejaVuSans-61" x="91.382812"/>
      <use xlink:href="#DejaVuSans-63" x="152.662109"/>
      <use xlink:href="#DejaVuSans-74" x="207.642578"/>
      <use xlink:href="#DejaVuSans-69" x="246.851562"/>
      <use xlink:href="#DejaVuSans-6f" x="274.634766"/>
      <use xlink:href="#DejaVuSans-6e" x="335.816406"/>
      <use xlink:href="#DejaVuSans-20" x="399.195312"/>
      <use xlink:href="#DejaVuSans-6f" x="430.982422"/>
      <use xlink:href="#DejaVuSans-66" x="492.164062"/>
      <use xlink:href="#DejaVuSans-20" x="527.369141"/>
      <use xlink:href="#DejaVuSans-63" x="559.15625"/>
      <use xlink:href="#DejaVuSans-6f" x="614.136719"/>
      <use xlink:href="#DejaVuSans-6d" x="675.318359"/>
      <use xlink:href="#DejaVuSans-70" x="772.730469"/>
      <use xlink:href="#DejaVuSans-6c" x="836.207031"/>
      <use xlink:href="#DejaVuSans-65" x="863.990234"/>
      <use xlink:href="#DejaVuSans-74" x="925.513672"/>
      <use xlink:href="#DejaVuSans-65" x="964.722656"/>
      <use xlink:href="#DejaVuSans-64" x="1026.246094"/>
      <use xlink:href="#DejaVuSans-20" x="1089.722656"/>
      <use xlink:href="#DejaVuSans-72" x="1121.509766"/>
      <use xlink:href="#DejaVuSans-65" x="1160.373047"/>
      <use xlink:href="#DejaVuSans-71" x="1221.896484"/>
      <use xlink:href="#DejaVuSans-75" x="1285.373047"/>
      <use xlink:href="#DejaVuSans-65" x="1348.751953"/>
      <use xlink:href="#DejaVuSans-73" x="1410.275391"/>
      <use xlink:href="#DejaVuSans-74" x="1462.375"/>
      <use xlink:href="#DejaVuSans-73" x="1501.583984"/>
     </g>
    </g>
   </g>
   <g id="line2d_27">
    <path d="M 47.72 269.368 
L 47.953649 269.368 
L 47.953649 267.790134 
L 48.140453 267.790134 
L 48.140453 266.212268 
L 48.309971 266.212268 
L 48.399782 259.900805 
L 48.445539 259.900805 
L 48.445539 258.322939 
L 48.751691 258.322939 
L 48.768275 242.54428 
L 62.452324 242.54428 
L 62.452324 240.966415 
L 64.271091 240.966415 
L 64.271091 237.810683 
L 64.876977 237.810683 
L 64.881912 234.654951 
L 67.803124 234.654951 
L 67.82487 218.876293 
L 67.928411 218.876293 
L 67.928411 217.298427 
L 68.177699 217.298427 
L 68.177699 215.720561 
L 69.52184 215.720561 
L 69.52184 214.142695 
L 69.692128 214.142695 
L 69.720332 210.986963 
L 69.866244 210.986963 
L 69.866244 209.409098 
L 70.025421 209.409098 
L 70.053569 206.253366 
L 70.298275 206.253366 
L 70.298275 204.6755 
L 71.747653 204.6755 
L 71.843469 201.519768 
L 72.117134 201.519768 
L 72.117134 199.941902 
L 72.48563 199.941902 
L 72.48563 198.364037 
L 73.006246 198.364037 
L 73.006246 196.786171 
L 76.100597 196.786171 
L 76.100597 195.208305 
L 76.440991 195.208305 
L 76.440991 193.630439 
L 77.183448 193.630439 
L 77.183448 192.052573 
L 77.438977 192.052573 
L 77.438977 190.474707 
L 77.709656 190.474707 
L 77.750044 185.74111 
L 78.057618 185.74111 
L 78.057618 184.163244 
L 78.591585 184.163244 
L 78.591585 182.585378 
L 78.843317 182.585378 
L 78.843317 181.007512 
L 79.10143 181.007512 
L 79.10143 179.429646 
L 79.440727 179.429646 
L 79.440727 177.85178 
L 80.368822 177.85178 
L 80.368822 176.273915 
L 80.595556 176.273915 
L 80.638538 173.118183 
L 81.152125 173.118183 
L 81.152125 171.540317 
L 81.562775 171.540317 
L 81.562775 169.962451 
L 82.233859 169.962451 
L 82.251708 165.228854 
L 82.900151 165.228854 
L 82.977634 162.073122 
L 85.752675 162.073122 
L 85.752675 160.495256 
L 86.440221 160.495256 
L 86.46796 157.339524 
L 86.691179 157.339524 
L 86.760901 149.450195 
L 86.915837 149.450195 
L 87.010326 144.716598 
L 87.062659 144.716598 
L 87.116448 141.560866 
L 87.284912 141.560866 
L 87.3154 138.405134 
L 87.516748 138.405134 
L 87.557908 135.249402 
L 87.648977 135.249402 
L 87.648977 133.671537 
L 88.32671 133.671537 
L 88.32671 132.093671 
L 88.934142 132.093671 
L 88.934142 130.515805 
L 89.487218 130.515805 
L 89.487218 128.937939 
L 89.699991 128.937939 
L 89.749114 124.204341 
L 90.044595 124.204341 
L 90.044595 122.626476 
L 90.269226 122.626476 
L 90.269226 121.04861 
L 90.554092 121.04861 
L 90.554092 119.470744 
L 92.928439 119.470744 
L 92.928439 117.892878 
L 93.170346 117.892878 
L 93.170346 116.315012 
L 94.615049 116.315012 
L 94.615049 114.737146 
L 95.575071 114.737146 
L 95.575071 113.15928 
L 96.094756 113.15928 
L 96.094756 111.581415 
L 96.810105 111.581415 
L 96.810105 110.003549 
L 96.97862 110.003549 
L 97.031059 106.847817 
L 97.290801 106.847817 
L 97.388775 103.692085 
L 97.693266 103.692085 
L 97.693266 102.11422 
L 100.247457 102.11422 
L 100.247457 100.536354 
L 100.713892 100.536354 
L 100.713892 98.958488 
L 101.717825 98.958488 
L 101.723826 95.802756 
L 103.259969 95.802756 
L 103.349501 92.647024 
L 104.551425 92.647024 
L 104.551425 91.069159 
L 105.745963 91.069159 
L 105.745963 89.491293 
L 108.170864 89.491293 
L 108.170864 87.913427 
L 108.656486 87.913427 
L 108.656486 86.335561 
L 110.185681 86.335561 
L 110.185681 84.757695 
L 112.299169 84.757695 
L 112.299169 83.179829 
L 115.618889 83.179829 
L 115.618889 81.601963 
L 120.081341 81.601963 
L 120.159515 78.446232 
L 121.005046 78.446232 
L 121.005046 76.868366 
L 121.169894 76.868366 
L 121.169894 75.2905 
L 122.260555 75.2905 
L 122.260555 73.712634 
L 123.858893 73.712634 
L 123.858893 72.134768 
L 124.088348 72.134768 
L 124.088348 70.556902 
L 125.671839 70.556902 
L 125.671839 68.979037 
L 147.771405 68.979037 
L 147.771405 67.401171 
L 147.771405 67.401171 
" clip-path="url(#p59fd0a2545)" style="fill: none; stroke: #2368a1; stroke-width: 2; stroke-linecap: square"/>
   </g>
   <g id="line2d_28">
    <path d="M 47.72 269.368 
L 47.947097 269.368 
L 47.947097 267.790134 
L 48.151352 267.790134 
L 48.256454 264.634402 
L 48.368501 264.634402 
L 48.468057 258.322939 
L 48.638301 258.322939 
L 48.716772 239.388549 
L 48.964211 239.388549 
L 48.99216 236.232817 
L 49.777047 236.232817 
L 49.777047 210.986963 
L 55.94913 210.986963 
L 55.94913 209.409098 
L 56.947143 209.409098 
L 56.947143 207.831232 
L 57.851296 207.831232 
L 57.851296 206.253366 
L 61.814289 206.253366 
L 61.814289 204.6755 
L 62.21275 204.6755 
L 62.21275 203.097634 
L 62.899921 203.097634 
L 62.899921 201.519768 
L 63.287168 201.519768 
L 63.357128 198.364037 
L 63.588373 198.364037 
L 63.681652 193.630439 
L 64.552787 193.630439 
L 64.552787 192.052573 
L 64.912769 192.052573 
L 64.912769 190.474707 
L 67.699563 190.474707 
L 67.699563 188.896841 
L 68.300839 188.896841 
L 68.300839 187.318976 
L 69.358031 187.318976 
L 69.450624 184.163244 
L 69.874636 184.163244 
L 69.874636 182.585378 
L 70.035705 182.585378 
L 70.035705 181.007512 
L 71.163016 181.007512 
L 71.163016 179.429646 
L 71.616854 179.429646 
L 71.616854 177.85178 
L 72.297853 177.85178 
L 72.297853 176.273915 
L 73.155771 176.273915 
L 73.155771 174.696049 
L 73.971327 174.696049 
L 73.971327 173.118183 
L 74.701476 173.118183 
L 74.701476 171.540317 
L 74.881234 171.540317 
L 74.881234 169.962451 
L 75.250722 169.962451 
L 75.250722 168.384585 
L 76.062808 168.384585 
L 76.062808 166.80672 
L 76.246592 166.80672 
L 76.246592 165.228854 
L 76.915435 165.228854 
L 76.915435 163.650988 
L 77.057665 163.650988 
L 77.057665 162.073122 
L 78.096549 162.073122 
L 78.096549 160.495256 
L 78.345846 160.495256 
L 78.345846 158.91739 
L 79.332216 158.91739 
L 79.332216 157.339524 
L 79.528421 157.339524 
L 79.528421 155.761659 
L 79.890244 155.761659 
L 79.890244 154.183793 
L 80.640967 154.183793 
L 80.640967 152.605927 
L 81.624994 152.605927 
L 81.624994 151.028061 
L 81.835844 151.028061 
L 81.835844 149.450195 
L 81.957752 149.450195 
L 81.957752 147.872329 
L 82.428951 147.872329 
L 82.428951 146.294463 
L 82.626957 146.294463 
L 82.626957 144.716598 
L 82.986488 144.716598 
L 82.986488 143.138732 
L 83.164951 143.138732 
L 83.164951 141.560866 
L 84.071315 141.560866 
L 84.071315 139.983 
L 84.394764 139.983 
L 84.394764 138.405134 
L 85.191133 138.405134 
L 85.191133 136.827268 
L 85.403663 136.827268 
L 85.403663 135.249402 
L 85.976606 135.249402 
L 85.976606 133.671537 
L 86.714191 133.671537 
L 86.714191 132.093671 
L 87.01997 132.093671 
L 87.108966 128.937939 
L 87.216592 128.937939 
L 87.216592 127.360073 
L 87.366203 127.360073 
L 87.366203 125.782207 
L 87.787375 125.782207 
L 87.787375 124.204341 
L 87.94102 124.204341 
L 87.94102 122.626476 
L 88.140748 122.626476 
L 88.140748 121.04861 
L 88.46932 121.04861 
L 88.46932 119.470744 
L 88.602489 119.470744 
L 88.684071 116.315012 
L 88.979671 116.315012 
L 88.979671 114.737146 
L 89.136425 114.737146 
L 89.136425 113.15928 
L 90.348499 113.15928 
L 90.348499 111.581415 
L 92.14259 111.581415 
L 92.250593 108.425683 
L 92.262148 108.425683 
L 92.262148 106.847817 
L 94.027154 106.847817 
L 94.027154 105.269951 
L 95.454641 105.269951 
L 95.454641 103.692085 
L 96.796672 103.692085 
L 96.796672 102.11422 
L 98.895599 102.11422 
L 98.895599 100.536354 
L 101.386191 100.536354 
L 101.386191 98.958488 
L 101.883702 98.958488 
L 101.883702 97.380622 
L 102.750888 97.380622 
L 102.843087 94.22489 
L 103.505395 94.22489 
L 103.505395 92.647024 
L 103.946214 92.647024 
L 103.946214 91.069159 
L 105.447061 91.069159 
L 105.447061 89.491293 
L 107.041371 89.491293 
L 107.041371 87.913427 
L 108.8582 87.913427 
L 108.8582 86.335561 
L 109.568361 86.335561 
L 109.568361 84.757695 
L 109.88828 84.757695 
L 109.88828 83.179829 
L 110.105036 83.179829 
L 110.105036 81.601963 
L 111.2832 81.601963 
L 111.2832 80.024098 
L 116.408157 80.024098 
L 116.408157 78.446232 
L 118.902758 78.446232 
L 118.902758 76.868366 
L 125.718935 76.868366 
L 125.718935 75.2905 
L 128.834577 75.2905 
L 128.834577 73.712634 
L 134.623347 73.712634 
L 134.623347 72.134768 
L 172.832995 72.134768 
L 172.832995 70.556902 
L 197.192893 70.556902 
L 197.192893 68.979037 
L 369.021435 68.979037 
L 369.021435 67.401171 
L 369.021435 67.401171 
" clip-path="url(#p59fd0a2545)" style="fill: none; stroke-dasharray: 7.4,3.2; stroke-dashoffset: 0; stroke: #d8731d; stroke-width: 2"/>
   </g>
   <g id="line2d_29">
    <defs>
     <path id="m6f578f25e1" d="M 0 2.5 
C 0.663008 2.5 1.29895 2.236584 1.767767 1.767767 
C 2.236584 1.29895 2.5 0.663008 2.5 0 
C 2.5 -0.663008 2.236584 -1.29895 1.767767 -1.767767 
C 1.29895 -2.236584 0.663008 -2.5 0 -2.5 
C -0.663008 -2.5 -1.29895 -2.236584 -1.767767 -1.767767 
C -2.236584 -1.29895 -2.5 -0.663008 -2.5 0 
C -2.5 0.663008 -2.236584 1.29895 -1.767767 1.767767 
C -1.29895 2.236584 -0.663008 2.5 0 2.5 
z
" style="stroke: #d8731d"/>
    </defs>
    <g clip-path="url(#p59fd0a2545)">
     <use xlink:href="#m6f578f25e1" x="369.021435" y="67.401171" style="fill: #d8731d; stroke: #d8731d"/>
    </g>
   </g>
   <g id="patch_3">
    <path d="M 47.72 269.368 
L 47.72 62.352 
" style="fill: none; stroke: #000000; stroke-width: 0.8; stroke-linejoin: miter; stroke-linecap: square"/>
   </g>
   <g id="patch_4">
    <path d="M 47.72 269.368 
L 383.48 269.368 
" style="fill: none; stroke: #000000; stroke-width: 0.8; stroke-linejoin: miter; stroke-linecap: square"/>
   </g>
   <g id="patch_5">
    <path d="M 283.133793 90.261518 
Q 325.111745 79.088426 366.117321 68.174146 
" style="fill: none; stroke: #d8731d; stroke-width: 0.9; stroke-linecap: round"/>
    <path d="M 362.175463 67.360665 
L 366.117321 68.174146 
L 363.101421 70.839545 
" style="fill: none; stroke: #d8731d; stroke-width: 0.9; stroke-linecap: round"/>
   </g>
   <g id="text_16">
    <!-- on tail 12.186 s -->
    <g transform="translate(222.3152 99.61488) scale(0.09 -0.09)">
     <use xlink:href="#DejaVuSans-6f"/>
     <use xlink:href="#DejaVuSans-6e" x="61.181641"/>
     <use xlink:href="#DejaVuSans-20" x="124.560547"/>
     <use xlink:href="#DejaVuSans-74" x="156.347656"/>
     <use xlink:href="#DejaVuSans-61" x="195.556641"/>
     <use xlink:href="#DejaVuSans-69" x="256.835938"/>
     <use xlink:href="#DejaVuSans-6c" x="284.619141"/>
     <use xlink:href="#DejaVuSans-20" x="312.402344"/>
     <use xlink:href="#DejaVuSans-31" x="344.189453"/>
     <use xlink:href="#DejaVuSans-32" x="407.8125"/>
     <use xlink:href="#DejaVuSans-2e" x="471.435547"/>
     <use xlink:href="#DejaVuSans-31" x="503.222656"/>
     <use xlink:href="#DejaVuSans-38" x="566.845703"/>
     <use xlink:href="#DejaVuSans-36" x="630.46875"/>
     <use xlink:href="#DejaVuSans-20" x="694.091797"/>
     <use xlink:href="#DejaVuSans-73" x="725.878906"/>
    </g>
   </g>
   <g id="legend_1">
    <g id="line2d_30">
     <path d="M 265.139844 243.035969 
L 274.139844 243.035969 
L 274.139844 243.035969 
L 283.139844 243.035969 
L 283.139844 243.035969 
" style="fill: none; stroke: #2368a1; stroke-width: 2; stroke-linecap: square"/>
    </g>
    <g id="text_17">
     <!-- fit-first off (n=128) -->
     <g transform="translate(290.339844 246.185969) scale(0.09 -0.09)">
      <defs>
       <path id="DejaVuSans-3d" d="M 678 2906 
L 4684 2906 
L 4684 2381 
L 678 2381 
L 678 2906 
z
M 678 1631 
L 4684 1631 
L 4684 1100 
L 678 1100 
L 678 1631 
z
" transform="scale(0.015625)"/>
      </defs>
      <use xlink:href="#DejaVuSans-66"/>
      <use xlink:href="#DejaVuSans-69" x="35.205078"/>
      <use xlink:href="#DejaVuSans-74" x="62.988281"/>
      <use xlink:href="#DejaVuSans-2d" x="102.197266"/>
      <use xlink:href="#DejaVuSans-66" x="138.28125"/>
      <use xlink:href="#DejaVuSans-69" x="173.486328"/>
      <use xlink:href="#DejaVuSans-72" x="201.269531"/>
      <use xlink:href="#DejaVuSans-73" x="242.382812"/>
      <use xlink:href="#DejaVuSans-74" x="294.482422"/>
      <use xlink:href="#DejaVuSans-20" x="333.691406"/>
      <use xlink:href="#DejaVuSans-6f" x="365.478516"/>
      <use xlink:href="#DejaVuSans-66" x="426.660156"/>
      <use xlink:href="#DejaVuSans-66" x="461.865234"/>
      <use xlink:href="#DejaVuSans-20" x="497.070312"/>
      <use xlink:href="#DejaVuSans-28" x="528.857422"/>
      <use xlink:href="#DejaVuSans-6e" x="567.871094"/>
      <use xlink:href="#DejaVuSans-3d" x="631.25"/>
      <use xlink:href="#DejaVuSans-31" x="715.039062"/>
      <use xlink:href="#DejaVuSans-32" x="778.662109"/>
      <use xlink:href="#DejaVuSans-38" x="842.285156"/>
      <use xlink:href="#DejaVuSans-29" x="905.908203"/>
     </g>
    </g>
    <g id="line2d_31">
     <path d="M 265.139844 256.246281 
L 274.139844 256.246281 
L 274.139844 256.246281 
L 283.139844 256.246281 
L 283.139844 256.246281 
" style="fill: none; stroke-dasharray: 7.4,3.2; stroke-dashoffset: 0; stroke: #d8731d; stroke-width: 2"/>
    </g>
    <g id="text_18">
     <!-- fit-first on (n=128) -->
     <g transform="translate(290.339844 259.396281) scale(0.09 -0.09)">
      <use xlink:href="#DejaVuSans-66"/>
      <use xlink:href="#DejaVuSans-69" x="35.205078"/>
      <use xlink:href="#DejaVuSans-74" x="62.988281"/>
      <use xlink:href="#DejaVuSans-2d" x="102.197266"/>
      <use xlink:href="#DejaVuSans-66" x="138.28125"/>
      <use xlink:href="#DejaVuSans-69" x="173.486328"/>
      <use xlink:href="#DejaVuSans-72" x="201.269531"/>
      <use xlink:href="#DejaVuSans-73" x="242.382812"/>
      <use xlink:href="#DejaVuSans-74" x="294.482422"/>
      <use xlink:href="#DejaVuSans-20" x="333.691406"/>
      <use xlink:href="#DejaVuSans-6f" x="365.478516"/>
      <use xlink:href="#DejaVuSans-6e" x="426.660156"/>
      <use xlink:href="#DejaVuSans-20" x="490.039062"/>
      <use xlink:href="#DejaVuSans-28" x="521.826172"/>
      <use xlink:href="#DejaVuSans-6e" x="560.839844"/>
      <use xlink:href="#DejaVuSans-3d" x="624.21875"/>
      <use xlink:href="#DejaVuSans-31" x="708.007812"/>
      <use xlink:href="#DejaVuSans-32" x="771.630859"/>
      <use xlink:href="#DejaVuSans-38" x="835.253906"/>
      <use xlink:href="#DejaVuSans-29" x="898.876953"/>
     </g>
    </g>
   </g>
  </g>
  <g id="axes_2">
   <g id="patch_6">
    <path d="M 397.78 269.368 
L 733.54 269.368 
L 733.54 62.352 
L 397.78 62.352 
z
" style="fill: #ffffff"/>
   </g>
   <g id="matplotlib.axis_3">
    <g id="xtick_8">
     <g id="line2d_32">
      <path d="M 397.78 269.368 
L 397.78 62.352 
" clip-path="url(#p2448404815)" style="fill: none; stroke: #b0b0b0; stroke-opacity: 0.25; stroke-width: 0.7; stroke-linecap: square"/>
     </g>
     <g id="line2d_33">
      <g>
       <use xlink:href="#mfe486146e8" x="397.78" y="269.368" style="stroke: #000000; stroke-width: 0.8"/>
      </g>
     </g>
     <g id="text_19">
      <!-- 0 -->
      <g transform="translate(394.59875 283.966437) scale(0.1 -0.1)">
       <use xlink:href="#DejaVuSans-30"/>
      </g>
     </g>
    </g>
    <g id="xtick_9">
     <g id="line2d_34">
      <path d="M 447.213588 269.368 
L 447.213588 62.352 
" clip-path="url(#p2448404815)" style="fill: none; stroke: #b0b0b0; stroke-opacity: 0.25; stroke-width: 0.7; stroke-linecap: square"/>
     </g>
     <g id="line2d_35">
      <g>
       <use xlink:href="#mfe486146e8" x="447.213588" y="269.368" style="stroke: #000000; stroke-width: 0.8"/>
      </g>
     </g>
     <g id="text_20">
      <!-- 10 -->
      <g transform="translate(440.851088 283.966437) scale(0.1 -0.1)">
       <use xlink:href="#DejaVuSans-31"/>
       <use xlink:href="#DejaVuSans-30" x="63.623047"/>
      </g>
     </g>
    </g>
    <g id="xtick_10">
     <g id="line2d_36">
      <path d="M 496.647177 269.368 
L 496.647177 62.352 
" clip-path="url(#p2448404815)" style="fill: none; stroke: #b0b0b0; stroke-opacity: 0.25; stroke-width: 0.7; stroke-linecap: square"/>
     </g>
     <g id="line2d_37">
      <g>
       <use xlink:href="#mfe486146e8" x="496.647177" y="269.368" style="stroke: #000000; stroke-width: 0.8"/>
      </g>
     </g>
     <g id="text_21">
      <!-- 20 -->
      <g transform="translate(490.284677 283.966437) scale(0.1 -0.1)">
       <use xlink:href="#DejaVuSans-32"/>
       <use xlink:href="#DejaVuSans-30" x="63.623047"/>
      </g>
     </g>
    </g>
    <g id="xtick_11">
     <g id="line2d_38">
      <path d="M 546.080765 269.368 
L 546.080765 62.352 
" clip-path="url(#p2448404815)" style="fill: none; stroke: #b0b0b0; stroke-opacity: 0.25; stroke-width: 0.7; stroke-linecap: square"/>
     </g>
     <g id="line2d_39">
      <g>
       <use xlink:href="#mfe486146e8" x="546.080765" y="269.368" style="stroke: #000000; stroke-width: 0.8"/>
      </g>
     </g>
     <g id="text_22">
      <!-- 30 -->
      <g transform="translate(539.718265 283.966437) scale(0.1 -0.1)">
       <defs>
        <path id="DejaVuSans-33" d="M 2597 2516 
Q 3050 2419 3304 2112 
Q 3559 1806 3559 1356 
Q 3559 666 3084 287 
Q 2609 -91 1734 -91 
Q 1441 -91 1130 -33 
Q 819 25 488 141 
L 488 750 
Q 750 597 1062 519 
Q 1375 441 1716 441 
Q 2309 441 2620 675 
Q 2931 909 2931 1356 
Q 2931 1769 2642 2001 
Q 2353 2234 1838 2234 
L 1294 2234 
L 1294 2753 
L 1863 2753 
Q 2328 2753 2575 2939 
Q 2822 3125 2822 3475 
Q 2822 3834 2567 4026 
Q 2313 4219 1838 4219 
Q 1578 4219 1281 4162 
Q 984 4106 628 3988 
L 628 4550 
Q 988 4650 1302 4700 
Q 1616 4750 1894 4750 
Q 2613 4750 3031 4423 
Q 3450 4097 3450 3541 
Q 3450 3153 3228 2886 
Q 3006 2619 2597 2516 
z
" transform="scale(0.015625)"/>
       </defs>
       <use xlink:href="#DejaVuSans-33"/>
       <use xlink:href="#DejaVuSans-30" x="63.623047"/>
      </g>
     </g>
    </g>
    <g id="xtick_12">
     <g id="line2d_40">
      <path d="M 595.514353 269.368 
L 595.514353 62.352 
" clip-path="url(#p2448404815)" style="fill: none; stroke: #b0b0b0; stroke-opacity: 0.25; stroke-width: 0.7; stroke-linecap: square"/>
     </g>
     <g id="line2d_41">
      <g>
       <use xlink:href="#mfe486146e8" x="595.514353" y="269.368" style="stroke: #000000; stroke-width: 0.8"/>
      </g>
     </g>
     <g id="text_23">
      <!-- 40 -->
      <g transform="translate(589.151853 283.966437) scale(0.1 -0.1)">
       <use xlink:href="#DejaVuSans-34"/>
       <use xlink:href="#DejaVuSans-30" x="63.623047"/>
      </g>
     </g>
    </g>
    <g id="xtick_13">
     <g id="line2d_42">
      <path d="M 644.947942 269.368 
L 644.947942 62.352 
" clip-path="url(#p2448404815)" style="fill: none; stroke: #b0b0b0; stroke-opacity: 0.25; stroke-width: 0.7; stroke-linecap: square"/>
     </g>
     <g id="line2d_43">
      <g>
       <use xlink:href="#mfe486146e8" x="644.947942" y="269.368" style="stroke: #000000; stroke-width: 0.8"/>
      </g>
     </g>
     <g id="text_24">
      <!-- 50 -->
      <g transform="translate(638.585442 283.966437) scale(0.1 -0.1)">
       <defs>
        <path id="DejaVuSans-35" d="M 691 4666 
L 3169 4666 
L 3169 4134 
L 1269 4134 
L 1269 2991 
Q 1406 3038 1543 3061 
Q 1681 3084 1819 3084 
Q 2600 3084 3056 2656 
Q 3513 2228 3513 1497 
Q 3513 744 3044 326 
Q 2575 -91 1722 -91 
Q 1428 -91 1123 -41 
Q 819 9 494 109 
L 494 744 
Q 775 591 1075 516 
Q 1375 441 1709 441 
Q 2250 441 2565 725 
Q 2881 1009 2881 1497 
Q 2881 1984 2565 2268 
Q 2250 2553 1709 2553 
Q 1456 2553 1204 2497 
Q 953 2441 691 2322 
L 691 4666 
z
" transform="scale(0.015625)"/>
       </defs>
       <use xlink:href="#DejaVuSans-35"/>
       <use xlink:href="#DejaVuSans-30" x="63.623047"/>
      </g>
     </g>
    </g>
    <g id="xtick_14">
     <g id="line2d_44">
      <path d="M 694.38153 269.368 
L 694.38153 62.352 
" clip-path="url(#p2448404815)" style="fill: none; stroke: #b0b0b0; stroke-opacity: 0.25; stroke-width: 0.7; stroke-linecap: square"/>
     </g>
     <g id="line2d_45">
      <g>
       <use xlink:href="#mfe486146e8" x="694.38153" y="269.368" style="stroke: #000000; stroke-width: 0.8"/>
      </g>
     </g>
     <g id="text_25">
      <!-- 60 -->
      <g transform="translate(688.01903 283.966437) scale(0.1 -0.1)">
       <use xlink:href="#DejaVuSans-36"/>
       <use xlink:href="#DejaVuSans-30" x="63.623047"/>
      </g>
     </g>
    </g>
    <g id="text_26">
     <!-- Arrival-to-completion time per request (s) -->
     <g transform="translate(461.32875 297.644563) scale(0.1 -0.1)">
      <defs>
       <path id="DejaVuSans-41" d="M 2188 4044 
L 1331 1722 
L 3047 1722 
L 2188 4044 
z
M 1831 4666 
L 2547 4666 
L 4325 0 
L 3669 0 
L 3244 1197 
L 1141 1197 
L 716 0 
L 50 0 
L 1831 4666 
z
" transform="scale(0.015625)"/>
       <path id="DejaVuSans-76" d="M 191 3500 
L 800 3500 
L 1894 563 
L 2988 3500 
L 3597 3500 
L 2284 0 
L 1503 0 
L 191 3500 
z
" transform="scale(0.015625)"/>
      </defs>
      <use xlink:href="#DejaVuSans-41"/>
      <use xlink:href="#DejaVuSans-72" x="68.408203"/>
      <use xlink:href="#DejaVuSans-72" x="107.771484"/>
      <use xlink:href="#DejaVuSans-69" x="148.884766"/>
      <use xlink:href="#DejaVuSans-76" x="176.667969"/>
      <use xlink:href="#DejaVuSans-61" x="235.847656"/>
      <use xlink:href="#DejaVuSans-6c" x="297.126953"/>
      <use xlink:href="#DejaVuSans-2d" x="324.910156"/>
      <use xlink:href="#DejaVuSans-74" x="360.994141"/>
      <use xlink:href="#DejaVuSans-6f" x="400.203125"/>
      <use xlink:href="#DejaVuSans-2d" x="463.259766"/>
      <use xlink:href="#DejaVuSans-63" x="499.34375"/>
      <use xlink:href="#DejaVuSans-6f" x="554.324219"/>
      <use xlink:href="#DejaVuSans-6d" x="615.505859"/>
      <use xlink:href="#DejaVuSans-70" x="712.917969"/>
      <use xlink:href="#DejaVuSans-6c" x="776.394531"/>
      <use xlink:href="#DejaVuSans-65" x="804.177734"/>
      <use xlink:href="#DejaVuSans-74" x="865.701172"/>
      <use xlink:href="#DejaVuSans-69" x="904.910156"/>
      <use xlink:href="#DejaVuSans-6f" x="932.693359"/>
      <use xlink:href="#DejaVuSans-6e" x="993.875"/>
      <use xlink:href="#DejaVuSans-20" x="1057.253906"/>
      <use xlink:href="#DejaVuSans-74" x="1089.041016"/>
      <use xlink:href="#DejaVuSans-69" x="1128.25"/>
      <use xlink:href="#DejaVuSans-6d" x="1156.033203"/>
      <use xlink:href="#DejaVuSans-65" x="1253.445312"/>
      <use xlink:href="#DejaVuSans-20" x="1314.96875"/>
      <use xlink:href="#DejaVuSans-70" x="1346.755859"/>
      <use xlink:href="#DejaVuSans-65" x="1410.232422"/>
      <use xlink:href="#DejaVuSans-72" x="1471.755859"/>
      <use xlink:href="#DejaVuSans-20" x="1512.869141"/>
      <use xlink:href="#DejaVuSans-72" x="1544.65625"/>
      <use xlink:href="#DejaVuSans-65" x="1583.519531"/>
      <use xlink:href="#DejaVuSans-71" x="1645.042969"/>
      <use xlink:href="#DejaVuSans-75" x="1708.519531"/>
      <use xlink:href="#DejaVuSans-65" x="1771.898438"/>
      <use xlink:href="#DejaVuSans-73" x="1833.421875"/>
      <use xlink:href="#DejaVuSans-74" x="1885.521484"/>
      <use xlink:href="#DejaVuSans-20" x="1924.730469"/>
      <use xlink:href="#DejaVuSans-28" x="1956.517578"/>
      <use xlink:href="#DejaVuSans-73" x="1995.53125"/>
      <use xlink:href="#DejaVuSans-29" x="2047.630859"/>
     </g>
    </g>
   </g>
   <g id="matplotlib.axis_4">
    <g id="ytick_7">
     <g id="line2d_46">
      <path d="M 397.78 269.368 
L 733.54 269.368 
" clip-path="url(#p2448404815)" style="fill: none; stroke: #b0b0b0; stroke-opacity: 0.25; stroke-width: 0.7; stroke-linecap: square"/>
     </g>
     <g id="line2d_47">
      <g>
       <use xlink:href="#m95f5a29e44" x="397.78" y="269.368" style="stroke: #000000; stroke-width: 0.8"/>
      </g>
     </g>
    </g>
    <g id="ytick_8">
     <g id="line2d_48">
      <path d="M 397.78 228.974634 
L 733.54 228.974634 
" clip-path="url(#p2448404815)" style="fill: none; stroke: #b0b0b0; stroke-opacity: 0.25; stroke-width: 0.7; stroke-linecap: square"/>
     </g>
     <g id="line2d_49">
      <g>
       <use xlink:href="#m95f5a29e44" x="397.78" y="228.974634" style="stroke: #000000; stroke-width: 0.8"/>
      </g>
     </g>
    </g>
    <g id="ytick_9">
     <g id="line2d_50">
      <path d="M 397.78 188.581268 
L 733.54 188.581268 
" clip-path="url(#p2448404815)" style="fill: none; stroke: #b0b0b0; stroke-opacity: 0.25; stroke-width: 0.7; stroke-linecap: square"/>
     </g>
     <g id="line2d_51">
      <g>
       <use xlink:href="#m95f5a29e44" x="397.78" y="188.581268" style="stroke: #000000; stroke-width: 0.8"/>
      </g>
     </g>
    </g>
    <g id="ytick_10">
     <g id="line2d_52">
      <path d="M 397.78 148.187902 
L 733.54 148.187902 
" clip-path="url(#p2448404815)" style="fill: none; stroke: #b0b0b0; stroke-opacity: 0.25; stroke-width: 0.7; stroke-linecap: square"/>
     </g>
     <g id="line2d_53">
      <g>
       <use xlink:href="#m95f5a29e44" x="397.78" y="148.187902" style="stroke: #000000; stroke-width: 0.8"/>
      </g>
     </g>
    </g>
    <g id="ytick_11">
     <g id="line2d_54">
      <path d="M 397.78 107.794537 
L 733.54 107.794537 
" clip-path="url(#p2448404815)" style="fill: none; stroke: #b0b0b0; stroke-opacity: 0.25; stroke-width: 0.7; stroke-linecap: square"/>
     </g>
     <g id="line2d_55">
      <g>
       <use xlink:href="#m95f5a29e44" x="397.78" y="107.794537" style="stroke: #000000; stroke-width: 0.8"/>
      </g>
     </g>
    </g>
    <g id="ytick_12">
     <g id="line2d_56">
      <path d="M 397.78 67.401171 
L 733.54 67.401171 
" clip-path="url(#p2448404815)" style="fill: none; stroke: #b0b0b0; stroke-opacity: 0.25; stroke-width: 0.7; stroke-linecap: square"/>
     </g>
     <g id="line2d_57">
      <g>
       <use xlink:href="#m95f5a29e44" x="397.78" y="67.401171" style="stroke: #000000; stroke-width: 0.8"/>
      </g>
     </g>
    </g>
   </g>
   <g id="line2d_58">
    <path d="M 397.78 269.368 
L 398.422556 269.368 
L 398.422556 267.790134 
L 400.474181 267.790134 
L 400.474181 266.212268 
L 477.953059 266.212268 
L 477.953059 264.634402 
L 481.605806 264.634402 
L 481.605806 263.056537 
L 484.330983 263.056537 
L 484.330983 261.478671 
L 484.884911 261.478671 
L 484.991258 258.322939 
L 485.498442 258.322939 
L 485.498442 256.745073 
L 488.336333 256.745073 
L 488.345812 253.589341 
L 488.519364 253.589341 
L 488.519364 252.011476 
L 488.958382 252.011476 
L 488.958382 250.43361 
L 489.128073 250.43361 
L 489.128073 248.855744 
L 489.569043 248.855744 
L 489.569043 247.277878 
L 490.559609 247.277878 
L 490.559609 245.700012 
L 490.679571 245.700012 
L 490.679571 244.122146 
L 491.242403 244.122146 
L 491.242403 242.54428 
L 492.398346 242.54428 
L 492.398346 240.966415 
L 494.971681 240.966415 
L 494.971681 239.388549 
L 495.866647 239.388549 
L 495.866647 237.810683 
L 500.459725 237.810683 
L 500.459725 236.232817 
L 501.448217 236.232817 
L 501.448217 234.654951 
L 502.211792 234.654951 
L 502.211792 233.077085 
L 503.723331 233.077085 
L 503.723331 231.49922 
L 506.005822 231.49922 
L 506.005822 229.921354 
L 506.138996 229.921354 
L 506.138996 228.343488 
L 506.870041 228.343488 
L 506.870041 226.765622 
L 507.281347 226.765622 
L 507.281347 225.187756 
L 508.813085 225.187756 
L 508.813085 223.60989 
L 510.744799 223.60989 
L 510.744799 222.032024 
L 511.307473 222.032024 
L 511.307473 220.454159 
L 513.477446 220.454159 
L 513.477446 218.876293 
L 517.691732 218.876293 
L 517.691732 217.298427 
L 517.927505 217.298427 
L 517.927505 215.720561 
L 520.285658 215.720561 
L 520.285658 214.142695 
L 531.350279 214.142695 
L 531.350279 212.564829 
L 537.703211 212.564829 
L 537.703211 210.986963 
L 538.045272 210.986963 
L 538.045272 209.409098 
L 538.659361 209.409098 
L 538.659361 207.831232 
L 539.519494 207.831232 
L 539.519494 206.253366 
L 540.251856 206.253366 
L 540.251856 204.6755 
L 541.084413 204.6755 
L 541.084413 203.097634 
L 541.690986 203.097634 
L 541.690986 201.519768 
L 541.985966 201.519768 
L 541.985966 199.941902 
L 542.685147 199.941902 
L 542.685147 198.364037 
L 553.235636 198.364037 
L 553.235636 196.786171 
L 553.697348 196.786171 
L 553.697348 195.208305 
L 554.787341 195.208305 
L 554.787341 193.630439 
L 555.000593 193.630439 
L 555.000593 192.052573 
L 555.776013 192.052573 
L 555.776013 190.474707 
L 556.786223 190.474707 
L 556.786223 188.896841 
L 557.048521 188.896841 
L 557.048521 187.318976 
L 557.200355 187.318976 
L 557.252894 184.163244 
L 557.604754 184.163244 
L 557.604754 182.585378 
L 558.571658 182.585378 
L 558.571658 181.007512 
L 560.77073 181.007512 
L 560.77073 179.429646 
L 562.421678 179.429646 
L 562.421678 177.85178 
L 563.695548 177.85178 
L 563.750738 174.696049 
L 564.931872 174.696049 
L 564.931872 173.118183 
L 565.662731 173.118183 
L 565.662731 171.540317 
L 566.213632 171.540317 
L 566.213632 169.962451 
L 567.509576 169.962451 
L 567.509576 168.384585 
L 569.411095 168.384585 
L 569.411095 166.80672 
L 571.98178 166.80672 
L 571.98178 165.228854 
L 574.956082 165.228854 
L 574.956082 163.650988 
L 598.489011 163.650988 
L 598.489011 162.073122 
L 605.455941 162.073122 
L 605.455941 160.495256 
L 606.193823 160.495256 
L 606.193823 158.91739 
L 609.488637 158.91739 
L 609.488637 157.339524 
L 611.25841 157.339524 
L 611.25841 155.761659 
L 611.555437 155.761659 
L 611.555437 154.183793 
L 612.416294 154.183793 
L 612.416294 152.605927 
L 613.045191 152.605927 
L 613.045191 151.028061 
L 613.70109 151.028061 
L 613.70109 149.450195 
L 617.65759 149.450195 
L 617.65759 147.872329 
L 618.977222 147.872329 
L 618.977222 146.294463 
L 619.313783 146.294463 
L 619.313783 144.716598 
L 620.586989 144.716598 
L 620.586989 143.138732 
L 621.650171 143.138732 
L 621.75844 139.983 
L 622.4108 139.983 
L 622.4108 138.405134 
L 624.388144 138.405134 
L 624.388144 136.827268 
L 625.30688 136.827268 
L 625.30688 135.249402 
L 626.234879 135.249402 
L 626.234879 133.671537 
L 628.079972 133.671537 
L 628.079972 132.093671 
L 628.342831 132.093671 
L 628.342831 130.515805 
L 629.590096 130.515805 
L 629.590096 128.937939 
L 630.473706 128.937939 
L 630.473706 127.360073 
L 630.86002 127.360073 
L 630.86002 125.782207 
L 632.227583 125.782207 
L 632.227583 124.204341 
L 632.696259 124.204341 
L 632.696259 122.626476 
L 635.440816 122.626476 
L 635.440816 121.04861 
L 641.837282 121.04861 
L 641.837282 119.470744 
L 643.948597 119.470744 
L 643.948597 117.892878 
L 644.701425 117.892878 
L 644.701425 116.315012 
L 673.054716 116.315012 
L 673.054716 114.737146 
L 673.963484 114.737146 
L 673.963484 113.15928 
L 679.033727 113.15928 
L 679.107186 110.003549 
L 679.221625 110.003549 
L 679.221625 108.425683 
L 681.039045 108.425683 
L 681.039045 106.847817 
L 682.500535 106.847817 
L 682.500535 105.269951 
L 683.55334 105.269951 
L 683.55334 103.692085 
L 685.388222 103.692085 
L 685.388222 102.11422 
L 686.456363 102.11422 
L 686.456363 100.536354 
L 687.008716 100.536354 
L 687.008716 98.958488 
L 688.910621 98.958488 
L 688.910621 97.380622 
L 689.366561 97.380622 
L 689.366561 95.802756 
L 690.545072 95.802756 
L 690.545072 94.22489 
L 696.910362 94.22489 
L 696.95398 91.069159 
L 697.703277 91.069159 
L 697.703277 89.491293 
L 698.092248 89.491293 
L 698.092248 87.913427 
L 698.537151 87.913427 
L 698.537151 86.335561 
L 698.714719 86.335561 
L 698.714719 84.757695 
L 698.912419 84.757695 
L 698.912419 83.179829 
L 701.532103 83.179829 
L 701.532103 81.601963 
L 702.394079 81.601963 
L 702.394079 80.024098 
L 703.113243 80.024098 
L 703.113243 78.446232 
L 704.436912 78.446232 
L 704.436912 76.868366 
L 707.649078 76.868366 
L 707.649078 75.2905 
L 707.994454 75.2905 
L 707.994454 73.712634 
L 709.809959 73.712634 
L 709.809959 72.134768 
L 711.862572 72.134768 
L 711.862572 70.556902 
L 713.263286 70.556902 
L 713.263286 68.979037 
L 714.09168 68.979037 
L 714.09168 67.401171 
L 714.09168 67.401171 
" clip-path="url(#p2448404815)" style="fill: none; stroke: #2368a1; stroke-width: 2; stroke-linecap: square"/>
   </g>
   <g id="line2d_59">
    <path d="M 397.78 269.368 
L 398.439458 269.368 
L 398.439458 267.790134 
L 400.358268 267.790134 
L 400.358268 266.212268 
L 466.961469 266.212268 
L 466.961469 264.634402 
L 469.494362 264.634402 
L 469.494362 263.056537 
L 476.980952 263.056537 
L 477.056998 259.900805 
L 477.358725 259.900805 
L 477.358725 258.322939 
L 479.56174 258.322939 
L 479.56174 256.745073 
L 480.201086 256.745073 
L 480.201086 255.167207 
L 480.54915 255.167207 
L 480.54915 253.589341 
L 480.935639 253.589341 
L 480.935639 252.011476 
L 481.155228 252.011476 
L 481.221149 248.855744 
L 482.042624 248.855744 
L 482.042624 247.277878 
L 482.604141 247.277878 
L 482.604141 245.700012 
L 482.782931 245.700012 
L 482.782931 244.122146 
L 483.850991 244.122146 
L 483.850991 242.54428 
L 484.287854 242.54428 
L 484.287854 240.966415 
L 485.458551 240.966415 
L 485.477396 237.810683 
L 486.056917 237.810683 
L 486.056917 236.232817 
L 487.093329 236.232817 
L 487.093329 234.654951 
L 488.921059 234.654951 
L 488.947074 231.49922 
L 489.61072 231.49922 
L 489.61072 229.921354 
L 489.948142 229.921354 
L 489.948142 228.343488 
L 492.277421 228.343488 
L 492.277421 226.765622 
L 492.940467 226.765622 
L 492.940467 225.187756 
L 493.557792 225.187756 
L 493.557792 223.60989 
L 496.068135 223.60989 
L 496.068135 222.032024 
L 497.950918 222.032024 
L 497.950918 220.454159 
L 499.279786 220.454159 
L 499.279786 218.876293 
L 506.11978 218.876293 
L 506.11978 217.298427 
L 513.405355 217.298427 
L 513.405355 215.720561 
L 522.323877 215.720561 
L 522.323877 214.142695 
L 529.29747 214.142695 
L 529.29747 212.564829 
L 530.30399 212.564829 
L 530.30399 210.986963 
L 531.049051 210.986963 
L 531.049051 209.409098 
L 531.221923 209.409098 
L 531.221923 207.831232 
L 531.556535 207.831232 
L 531.556535 206.253366 
L 532.299717 206.253366 
L 532.299717 204.6755 
L 533.128747 204.6755 
L 533.128747 203.097634 
L 537.072037 203.097634 
L 537.072037 201.519768 
L 538.19938 201.519768 
L 538.19938 199.941902 
L 540.910072 199.941902 
L 540.910072 198.364037 
L 541.075426 198.364037 
L 541.075426 196.786171 
L 541.800966 196.786171 
L 541.800966 195.208305 
L 542.276842 195.208305 
L 542.276842 193.630439 
L 544.169148 193.630439 
L 544.209441 190.474707 
L 547.566863 190.474707 
L 547.566863 188.896841 
L 547.826605 188.896841 
L 547.826605 187.318976 
L 548.075012 187.318976 
L 548.075012 185.74111 
L 548.766249 185.74111 
L 548.766249 184.163244 
L 549.517992 184.163244 
L 549.517992 182.585378 
L 553.880379 182.585378 
L 553.880379 181.007512 
L 554.110862 181.007512 
L 554.110862 179.429646 
L 554.813866 179.429646 
L 554.813866 177.85178 
L 555.504825 177.85178 
L 555.504825 176.273915 
L 557.150211 176.273915 
L 557.150211 174.696049 
L 557.843768 174.696049 
L 557.843768 173.118183 
L 558.301815 173.118183 
L 558.301815 171.540317 
L 560.078968 171.540317 
L 560.078968 169.962451 
L 565.827773 169.962451 
L 565.827773 168.384585 
L 566.472722 168.384585 
L 566.472722 166.80672 
L 566.911905 166.80672 
L 566.911905 165.228854 
L 569.091637 165.228854 
L 569.091637 163.650988 
L 593.55308 163.650988 
L 593.55308 162.073122 
L 596.574018 162.073122 
L 596.574018 160.495256 
L 599.48511 160.495256 
L 599.48511 158.91739 
L 600.188018 158.91739 
L 600.188018 157.339524 
L 600.991433 157.339524 
L 600.991433 155.761659 
L 601.881211 155.761659 
L 601.881211 154.183793 
L 602.633335 154.183793 
L 602.633335 152.605927 
L 602.869883 152.605927 
L 602.869883 151.028061 
L 603.84233 151.028061 
L 603.858555 147.872329 
L 606.120048 147.872329 
L 606.120048 146.294463 
L 608.900807 146.294463 
L 608.900807 144.716598 
L 612.466997 144.716598 
L 612.526466 141.560866 
L 613.326515 141.560866 
L 613.326515 139.983 
L 613.96252 139.983 
L 613.96252 138.405134 
L 614.760423 138.405134 
L 614.760423 136.827268 
L 615.622016 136.827268 
L 615.622016 135.249402 
L 621.253482 135.249402 
L 621.253482 133.671537 
L 621.398276 133.671537 
L 621.489793 128.937939 
L 622.506086 128.937939 
L 622.506086 127.360073 
L 624.401489 127.360073 
L 624.401489 125.782207 
L 624.914493 125.782207 
L 624.914493 124.204341 
L 625.263138 124.204341 
L 625.263138 122.626476 
L 626.25181 122.626476 
L 626.25181 121.04861 
L 627.240482 121.04861 
L 627.240482 119.470744 
L 640.282612 119.470744 
L 640.282612 117.892878 
L 667.183034 117.892878 
L 667.183034 116.315012 
L 668.035212 116.315012 
L 668.035212 114.737146 
L 668.886233 114.737146 
L 668.886233 113.15928 
L 669.338764 113.15928 
L 669.338764 111.581415 
L 669.73534 111.581415 
L 669.73534 110.003549 
L 670.582834 110.003549 
L 670.582834 108.425683 
L 671.357743 108.425683 
L 671.357743 106.847817 
L 672.27117 106.847817 
L 672.328969 103.692085 
L 672.878212 103.692085 
L 672.878212 102.11422 
L 673.701484 102.11422 
L 673.701484 100.536354 
L 674.605439 100.536354 
L 674.605439 98.958488 
L 675.438503 98.958488 
L 675.438503 97.380622 
L 676.175881 97.380622 
L 676.189712 94.22489 
L 677.10102 94.22489 
L 677.10102 92.647024 
L 678.611915 92.647024 
L 678.611915 91.069159 
L 681.508423 91.069159 
L 681.508423 89.491293 
L 682.305896 89.491293 
L 682.305896 87.913427 
L 682.638169 87.913427 
L 682.638169 86.335561 
L 683.255282 86.335561 
L 683.255282 84.757695 
L 684.798831 84.757695 
L 684.798831 83.179829 
L 685.166706 83.179829 
L 685.166706 81.601963 
L 686.044065 81.601963 
L 686.044065 80.024098 
L 686.779156 80.024098 
L 686.779156 78.446232 
L 687.25246 78.446232 
L 687.25246 76.868366 
L 687.767828 76.868366 
L 687.767828 75.2905 
L 688.499786 75.2905 
L 688.499786 73.712634 
L 688.998007 73.712634 
L 688.998007 72.134768 
L 692.024189 72.134768 
L 692.024189 70.556902 
L 695.578221 70.556902 
L 695.578221 68.979037 
L 719.081435 68.979037 
L 719.081435 67.401171 
L 719.081435 67.401171 
" clip-path="url(#p2448404815)" style="fill: none; stroke-dasharray: 7.4,3.2; stroke-dashoffset: 0; stroke: #d8731d; stroke-width: 2"/>
   </g>
   <g id="patch_7">
    <path d="M 397.78 269.368 
L 397.78 62.352 
" style="fill: none; stroke: #000000; stroke-width: 0.8; stroke-linejoin: miter; stroke-linecap: square"/>
   </g>
   <g id="patch_8">
    <path d="M 397.78 269.368 
L 733.54 269.368 
" style="fill: none; stroke: #000000; stroke-width: 0.8; stroke-linejoin: miter; stroke-linecap: square"/>
   </g>
  </g>
  <g id="axes_3">
   <g id="patch_9">
    <path d="M 747.84 269.368 
L 1083.6 269.368 
L 1083.6 62.352 
L 747.84 62.352 
z
" style="fill: #ffffff"/>
   </g>
   <g id="matplotlib.axis_5">
    <g id="xtick_15">
     <g id="line2d_60">
      <path d="M 747.84 269.368 
L 747.84 62.352 
" clip-path="url(#p6c3c4f14ee)" style="fill: none; stroke: #b0b0b0; stroke-opacity: 0.25; stroke-width: 0.7; stroke-linecap: square"/>
     </g>
     <g id="line2d_61">
      <g>
       <use xlink:href="#mfe486146e8" x="747.84" y="269.368" style="stroke: #000000; stroke-width: 0.8"/>
      </g>
     </g>
     <g id="text_27">
      <!-- 0 -->
      <g transform="translate(744.65875 283.966437) scale(0.1 -0.1)">
       <use xlink:href="#DejaVuSans-30"/>
      </g>
     </g>
    </g>
    <g id="xtick_16">
     <g id="line2d_62">
      <path d="M 804.731105 269.368 
L 804.731105 62.352 
" clip-path="url(#p6c3c4f14ee)" style="fill: none; stroke: #b0b0b0; stroke-opacity: 0.25; stroke-width: 0.7; stroke-linecap: square"/>
     </g>
     <g id="line2d_63">
      <g>
       <use xlink:href="#mfe486146e8" x="804.731105" y="269.368" style="stroke: #000000; stroke-width: 0.8"/>
      </g>
     </g>
     <g id="text_28">
      <!-- 10 -->
      <g transform="translate(798.368605 283.966437) scale(0.1 -0.1)">
       <use xlink:href="#DejaVuSans-31"/>
       <use xlink:href="#DejaVuSans-30" x="63.623047"/>
      </g>
     </g>
    </g>
    <g id="xtick_17">
     <g id="line2d_64">
      <path d="M 861.62221 269.368 
L 861.62221 62.352 
" clip-path="url(#p6c3c4f14ee)" style="fill: none; stroke: #b0b0b0; stroke-opacity: 0.25; stroke-width: 0.7; stroke-linecap: square"/>
     </g>
     <g id="line2d_65">
      <g>
       <use xlink:href="#mfe486146e8" x="861.62221" y="269.368" style="stroke: #000000; stroke-width: 0.8"/>
      </g>
     </g>
     <g id="text_29">
      <!-- 20 -->
      <g transform="translate(855.25971 283.966437) scale(0.1 -0.1)">
       <use xlink:href="#DejaVuSans-32"/>
       <use xlink:href="#DejaVuSans-30" x="63.623047"/>
      </g>
     </g>
    </g>
    <g id="xtick_18">
     <g id="line2d_66">
      <path d="M 918.513315 269.368 
L 918.513315 62.352 
" clip-path="url(#p6c3c4f14ee)" style="fill: none; stroke: #b0b0b0; stroke-opacity: 0.25; stroke-width: 0.7; stroke-linecap: square"/>
     </g>
     <g id="line2d_67">
      <g>
       <use xlink:href="#mfe486146e8" x="918.513315" y="269.368" style="stroke: #000000; stroke-width: 0.8"/>
      </g>
     </g>
     <g id="text_30">
      <!-- 30 -->
      <g transform="translate(912.150815 283.966437) scale(0.1 -0.1)">
       <use xlink:href="#DejaVuSans-33"/>
       <use xlink:href="#DejaVuSans-30" x="63.623047"/>
      </g>
     </g>
    </g>
    <g id="xtick_19">
     <g id="line2d_68">
      <path d="M 975.40442 269.368 
L 975.40442 62.352 
" clip-path="url(#p6c3c4f14ee)" style="fill: none; stroke: #b0b0b0; stroke-opacity: 0.25; stroke-width: 0.7; stroke-linecap: square"/>
     </g>
     <g id="line2d_69">
      <g>
       <use xlink:href="#mfe486146e8" x="975.40442" y="269.368" style="stroke: #000000; stroke-width: 0.8"/>
      </g>
     </g>
     <g id="text_31">
      <!-- 40 -->
      <g transform="translate(969.04192 283.966437) scale(0.1 -0.1)">
       <use xlink:href="#DejaVuSans-34"/>
       <use xlink:href="#DejaVuSans-30" x="63.623047"/>
      </g>
     </g>
    </g>
    <g id="xtick_20">
     <g id="line2d_70">
      <path d="M 1032.295526 269.368 
L 1032.295526 62.352 
" clip-path="url(#p6c3c4f14ee)" style="fill: none; stroke: #b0b0b0; stroke-opacity: 0.25; stroke-width: 0.7; stroke-linecap: square"/>
     </g>
     <g id="line2d_71">
      <g>
       <use xlink:href="#mfe486146e8" x="1032.295526" y="269.368" style="stroke: #000000; stroke-width: 0.8"/>
      </g>
     </g>
     <g id="text_32">
      <!-- 50 -->
      <g transform="translate(1025.933026 283.966437) scale(0.1 -0.1)">
       <use xlink:href="#DejaVuSans-35"/>
       <use xlink:href="#DejaVuSans-30" x="63.623047"/>
      </g>
     </g>
    </g>
    <g id="text_33">
     <!-- Time to first returned token per request (s) -->
     <g transform="translate(808.242656 297.644563) scale(0.1 -0.1)">
      <defs>
       <path id="DejaVuSans-54" d="M -19 4666 
L 3928 4666 
L 3928 4134 
L 2272 4134 
L 2272 0 
L 1638 0 
L 1638 4134 
L -19 4134 
L -19 4666 
z
" transform="scale(0.015625)"/>
       <path id="DejaVuSans-6b" d="M 581 4863 
L 1159 4863 
L 1159 1991 
L 2875 3500 
L 3609 3500 
L 1753 1863 
L 3688 0 
L 2938 0 
L 1159 1709 
L 1159 0 
L 581 0 
L 581 4863 
z
" transform="scale(0.015625)"/>
      </defs>
      <use xlink:href="#DejaVuSans-54"/>
      <use xlink:href="#DejaVuSans-69" x="57.958984"/>
      <use xlink:href="#DejaVuSans-6d" x="85.742188"/>
      <use xlink:href="#DejaVuSans-65" x="183.154297"/>
      <use xlink:href="#DejaVuSans-20" x="244.677734"/>
      <use xlink:href="#DejaVuSans-74" x="276.464844"/>
      <use xlink:href="#DejaVuSans-6f" x="315.673828"/>
      <use xlink:href="#DejaVuSans-20" x="376.855469"/>
      <use xlink:href="#DejaVuSans-66" x="408.642578"/>
      <use xlink:href="#DejaVuSans-69" x="443.847656"/>
      <use xlink:href="#DejaVuSans-72" x="471.630859"/>
      <use xlink:href="#DejaVuSans-73" x="512.744141"/>
      <use xlink:href="#DejaVuSans-74" x="564.84375"/>
      <use xlink:href="#DejaVuSans-20" x="604.052734"/>
      <use xlink:href="#DejaVuSans-72" x="635.839844"/>
      <use xlink:href="#DejaVuSans-65" x="674.703125"/>
      <use xlink:href="#DejaVuSans-74" x="736.226562"/>
      <use xlink:href="#DejaVuSans-75" x="775.435547"/>
      <use xlink:href="#DejaVuSans-72" x="838.814453"/>
      <use xlink:href="#DejaVuSans-6e" x="878.177734"/>
      <use xlink:href="#DejaVuSans-65" x="941.556641"/>
      <use xlink:href="#DejaVuSans-64" x="1003.080078"/>
      <use xlink:href="#DejaVuSans-20" x="1066.556641"/>
      <use xlink:href="#DejaVuSans-74" x="1098.34375"/>
      <use xlink:href="#DejaVuSans-6f" x="1137.552734"/>
      <use xlink:href="#DejaVuSans-6b" x="1198.734375"/>
      <use xlink:href="#DejaVuSans-65" x="1253.019531"/>
      <use xlink:href="#DejaVuSans-6e" x="1314.542969"/>
      <use xlink:href="#DejaVuSans-20" x="1377.921875"/>
      <use xlink:href="#DejaVuSans-70" x="1409.708984"/>
      <use xlink:href="#DejaVuSans-65" x="1473.185547"/>
      <use xlink:href="#DejaVuSans-72" x="1534.708984"/>
      <use xlink:href="#DejaVuSans-20" x="1575.822266"/>
      <use xlink:href="#DejaVuSans-72" x="1607.609375"/>
      <use xlink:href="#DejaVuSans-65" x="1646.472656"/>
      <use xlink:href="#DejaVuSans-71" x="1707.996094"/>
      <use xlink:href="#DejaVuSans-75" x="1771.472656"/>
      <use xlink:href="#DejaVuSans-65" x="1834.851562"/>
      <use xlink:href="#DejaVuSans-73" x="1896.375"/>
      <use xlink:href="#DejaVuSans-74" x="1948.474609"/>
      <use xlink:href="#DejaVuSans-20" x="1987.683594"/>
      <use xlink:href="#DejaVuSans-28" x="2019.470703"/>
      <use xlink:href="#DejaVuSans-73" x="2058.484375"/>
      <use xlink:href="#DejaVuSans-29" x="2110.583984"/>
     </g>
    </g>
   </g>
   <g id="matplotlib.axis_6">
    <g id="ytick_13">
     <g id="line2d_72">
      <path d="M 747.84 269.368 
L 1083.6 269.368 
" clip-path="url(#p6c3c4f14ee)" style="fill: none; stroke: #b0b0b0; stroke-opacity: 0.25; stroke-width: 0.7; stroke-linecap: square"/>
     </g>
     <g id="line2d_73">
      <g>
       <use xlink:href="#m95f5a29e44" x="747.84" y="269.368" style="stroke: #000000; stroke-width: 0.8"/>
      </g>
     </g>
    </g>
    <g id="ytick_14">
     <g id="line2d_74">
      <path d="M 747.84 228.974634 
L 1083.6 228.974634 
" clip-path="url(#p6c3c4f14ee)" style="fill: none; stroke: #b0b0b0; stroke-opacity: 0.25; stroke-width: 0.7; stroke-linecap: square"/>
     </g>
     <g id="line2d_75">
      <g>
       <use xlink:href="#m95f5a29e44" x="747.84" y="228.974634" style="stroke: #000000; stroke-width: 0.8"/>
      </g>
     </g>
    </g>
    <g id="ytick_15">
     <g id="line2d_76">
      <path d="M 747.84 188.581268 
L 1083.6 188.581268 
" clip-path="url(#p6c3c4f14ee)" style="fill: none; stroke: #b0b0b0; stroke-opacity: 0.25; stroke-width: 0.7; stroke-linecap: square"/>
     </g>
     <g id="line2d_77">
      <g>
       <use xlink:href="#m95f5a29e44" x="747.84" y="188.581268" style="stroke: #000000; stroke-width: 0.8"/>
      </g>
     </g>
    </g>
    <g id="ytick_16">
     <g id="line2d_78">
      <path d="M 747.84 148.187902 
L 1083.6 148.187902 
" clip-path="url(#p6c3c4f14ee)" style="fill: none; stroke: #b0b0b0; stroke-opacity: 0.25; stroke-width: 0.7; stroke-linecap: square"/>
     </g>
     <g id="line2d_79">
      <g>
       <use xlink:href="#m95f5a29e44" x="747.84" y="148.187902" style="stroke: #000000; stroke-width: 0.8"/>
      </g>
     </g>
    </g>
    <g id="ytick_17">
     <g id="line2d_80">
      <path d="M 747.84 107.794537 
L 1083.6 107.794537 
" clip-path="url(#p6c3c4f14ee)" style="fill: none; stroke: #b0b0b0; stroke-opacity: 0.25; stroke-width: 0.7; stroke-linecap: square"/>
     </g>
     <g id="line2d_81">
      <g>
       <use xlink:href="#m95f5a29e44" x="747.84" y="107.794537" style="stroke: #000000; stroke-width: 0.8"/>
      </g>
     </g>
    </g>
    <g id="ytick_18">
     <g id="line2d_82">
      <path d="M 747.84 67.401171 
L 1083.6 67.401171 
" clip-path="url(#p6c3c4f14ee)" style="fill: none; stroke: #b0b0b0; stroke-opacity: 0.25; stroke-width: 0.7; stroke-linecap: square"/>
     </g>
     <g id="line2d_83">
      <g>
       <use xlink:href="#m95f5a29e44" x="747.84" y="67.401171" style="stroke: #000000; stroke-width: 0.8"/>
      </g>
     </g>
    </g>
   </g>
   <g id="line2d_84">
    <path d="M 747.84 269.368 
L 747.978934 269.368 
L 748.081904 263.056537 
L 748.09349 263.056537 
L 748.197147 244.122146 
L 748.236582 244.122146 
L 748.305089 234.654951 
L 748.400735 234.654951 
L 748.400735 233.077085 
L 748.552377 233.077085 
L 748.552377 231.49922 
L 748.925718 231.49922 
L 748.925718 229.921354 
L 749.477043 229.921354 
L 749.477043 228.343488 
L 749.699133 228.343488 
L 749.699133 226.765622 
L 750.188237 226.765622 
L 750.188237 225.187756 
L 750.462854 225.187756 
L 750.462854 223.60989 
L 751.205135 223.60989 
L 751.205145 220.454159 
L 752.096437 220.454159 
L 752.096437 218.876293 
L 818.476885 218.876293 
L 818.580725 215.720561 
L 819.091115 215.720561 
L 819.091115 214.142695 
L 819.948435 214.142695 
L 819.948435 212.564829 
L 820.955485 212.564829 
L 820.955485 210.986963 
L 821.839943 210.986963 
L 821.839943 209.409098 
L 822.694324 209.409098 
L 822.694324 207.831232 
L 823.689552 207.831232 
L 823.689552 206.253366 
L 824.157575 206.253366 
L 824.157575 204.6755 
L 824.399139 204.6755 
L 824.399139 203.097634 
L 825.150905 203.097634 
L 825.150905 201.519768 
L 826.141094 201.519768 
L 826.141094 199.941902 
L 827.131766 199.941902 
L 827.131766 198.364037 
L 828.123857 198.364037 
L 828.123857 196.786171 
L 828.785036 196.786171 
L 828.785036 195.208305 
L 829.044029 195.208305 
L 829.044029 193.630439 
L 830.043537 193.630439 
L 830.043537 192.052573 
L 831.029944 192.052573 
L 831.029944 190.474707 
L 831.606972 190.474707 
L 831.606972 188.896841 
L 832.303877 188.896841 
L 832.303877 187.318976 
L 832.597615 187.318976 
L 832.597615 185.74111 
L 833.148373 185.74111 
L 833.148373 184.163244 
L 833.297182 184.163244 
L 833.297182 182.585378 
L 834.002361 182.585378 
L 834.002361 181.007512 
L 834.145595 181.007512 
L 834.145595 179.429646 
L 834.307605 179.429646 
L 834.307605 177.85178 
L 834.855744 177.85178 
L 834.855744 176.273915 
L 835.029459 176.273915 
L 835.029459 174.696049 
L 835.706158 174.696049 
L 835.706158 173.118183 
L 836.403681 173.118183 
L 836.403681 171.540317 
L 837.541503 171.540317 
L 837.541503 169.962451 
L 838.253731 169.962451 
L 838.253731 168.384585 
L 838.849332 168.384585 
L 838.849332 166.80672 
L 887.940219 166.80672 
L 887.963401 163.650988 
L 888.969943 163.650988 
L 888.969943 162.073122 
L 889.818929 162.073122 
L 889.818929 160.495256 
L 890.399466 160.495256 
L 890.399466 158.91739 
L 890.72598 158.91739 
L 890.72598 157.339524 
L 891.188913 157.339524 
L 891.188913 155.761659 
L 891.833733 155.761659 
L 891.833733 154.183793 
L 892.594136 154.183793 
L 892.688492 151.028061 
L 892.85985 151.028061 
L 892.85985 149.450195 
L 893.430573 149.450195 
L 893.454938 146.294463 
L 894.423484 146.294463 
L 894.423484 144.716598 
L 895.131053 144.716598 
L 895.131053 143.138732 
L 895.786309 143.138732 
L 895.786309 141.560866 
L 895.981922 141.560866 
L 895.981922 139.983 
L 896.671547 139.983 
L 896.671547 138.405134 
L 896.831094 138.405134 
L 896.831094 136.827268 
L 897.523514 136.827268 
L 897.523514 135.249402 
L 898.51814 135.249402 
L 898.51814 133.671537 
L 898.902442 133.671537 
L 898.902442 132.093671 
L 899.231196 132.093671 
L 899.231196 130.515805 
L 899.643493 130.515805 
L 899.643493 128.937939 
L 900.349875 128.937939 
L 900.349875 127.360073 
L 901.202287 127.360073 
L 901.202287 125.782207 
L 902.190104 125.782207 
L 902.190104 124.204341 
L 903.006821 124.204341 
L 903.006821 122.626476 
L 903.86232 122.626476 
L 903.86232 121.04861 
L 904.569562 121.04861 
L 904.569562 119.470744 
L 905.421035 119.470744 
L 905.421035 117.892878 
L 969.160831 117.892878 
L 969.160831 116.315012 
L 970.161739 116.315012 
L 970.161739 114.737146 
L 970.863078 114.737146 
L 970.863078 113.15928 
L 971.746804 113.15928 
L 971.854664 108.425683 
L 972.263369 108.425683 
L 972.263369 106.847817 
L 972.717608 106.847817 
L 972.730432 103.692085 
L 973.556373 103.692085 
L 973.556373 102.11422 
L 974.404991 102.11422 
L 974.404991 100.536354 
L 974.75693 100.536354 
L 974.75693 98.958488 
L 975.389267 98.958488 
L 975.389267 97.380622 
L 976.234603 97.380622 
L 976.234603 95.802756 
L 976.490545 95.802756 
L 976.594565 92.647024 
L 977.074775 92.647024 
L 977.074775 91.069159 
L 977.210681 91.069159 
L 977.210681 89.491293 
L 977.454588 89.491293 
L 977.517705 86.335561 
L 977.762583 86.335561 
L 977.762583 84.757695 
L 978.210499 84.757695 
L 978.284891 81.601963 
L 978.748203 81.601963 
L 978.748203 80.024098 
L 978.960452 80.024098 
L 978.960452 78.446232 
L 979.293057 78.446232 
L 979.293057 76.868366 
L 980.01625 76.868366 
L 980.01625 75.2905 
L 980.707354 75.2905 
L 980.707354 73.712634 
L 981.543109 73.712634 
L 981.543109 72.134768 
L 982.297065 72.134768 
L 982.297065 70.556902 
L 983.302407 70.556902 
L 983.302407 68.979037 
L 1069.141435 68.979037 
L 1069.141435 67.401171 
L 1069.141435 67.401171 
" clip-path="url(#p6c3c4f14ee)" style="fill: none; stroke: #2368a1; stroke-width: 2; stroke-linecap: square"/>
   </g>
   <g id="line2d_85">
    <path d="M 747.84 269.368 
L 747.988492 269.368 
L 748.095771 256.745073 
L 748.104276 256.745073 
L 748.214831 237.810683 
L 748.225096 237.810683 
L 748.31066 223.60989 
L 748.337202 223.60989 
L 748.337654 220.454159 
L 806.826076 220.454159 
L 806.826076 218.876293 
L 807.555152 218.876293 
L 807.555152 217.298427 
L 807.784012 217.298427 
L 807.784012 215.720561 
L 808.055496 215.720561 
L 808.055496 214.142695 
L 808.398164 214.142695 
L 808.398164 212.564829 
L 808.853631 212.564829 
L 808.853631 210.986963 
L 809.327937 210.986963 
L 809.327937 209.409098 
L 810.059725 209.409098 
L 810.059725 207.831232 
L 810.283402 207.831232 
L 810.283402 206.253366 
L 810.900323 206.253366 
L 810.900323 204.6755 
L 811.234688 204.6755 
L 811.234688 203.097634 
L 812.095549 203.097634 
L 812.095549 201.519768 
L 812.788216 201.519768 
L 812.788216 199.941902 
L 813.810084 199.941902 
L 813.810084 198.364037 
L 814.557798 198.364037 
L 814.557798 196.786171 
L 815.423471 196.786171 
L 815.423471 195.208305 
L 816.423719 195.208305 
L 816.423719 193.630439 
L 817.413099 193.630439 
L 817.413099 192.052573 
L 817.891765 192.052573 
L 817.891765 190.474707 
L 818.895475 190.474707 
L 818.958079 187.318976 
L 819.337891 187.318976 
L 819.337891 185.74111 
L 820.217297 185.74111 
L 820.217297 184.163244 
L 820.614432 184.163244 
L 820.614432 182.585378 
L 821.491665 182.585378 
L 821.491665 181.007512 
L 821.738672 181.007512 
L 821.738672 179.429646 
L 822.609543 179.429646 
L 822.609543 177.85178 
L 823.4522 177.85178 
L 823.4522 176.273915 
L 824.288539 176.273915 
L 824.288539 174.696049 
L 824.979854 174.696049 
L 824.979854 173.118183 
L 825.621468 173.118183 
L 825.621468 171.540317 
L 825.878593 171.540317 
L 825.878593 169.962451 
L 826.508486 169.962451 
L 826.508486 168.384585 
L 827.092682 168.384585 
L 827.092682 166.80672 
L 880.013089 166.80672 
L 880.042028 163.650988 
L 881.006273 163.650988 
L 881.006273 162.073122 
L 881.482666 162.073122 
L 881.482666 160.495256 
L 881.851155 160.495256 
L 881.851155 158.91739 
L 882.47649 158.91739 
L 882.580242 154.183793 
L 883.421283 154.183793 
L 883.421283 152.605927 
L 884.262348 152.605927 
L 884.262348 151.028061 
L 884.856468 151.028061 
L 884.856468 149.450195 
L 885.713571 149.450195 
L 885.713571 147.872329 
L 886.416837 147.872329 
L 886.416837 146.294463 
L 887.317273 146.294463 
L 887.406648 143.138732 
L 888.052861 143.138732 
L 888.104486 139.983 
L 888.462361 139.983 
L 888.462361 138.405134 
L 888.949394 138.405134 
L 888.949394 136.827268 
L 889.188787 136.827268 
L 889.188787 135.249402 
L 889.792108 135.249402 
L 889.886181 132.093671 
L 890.201717 132.093671 
L 890.201717 130.515805 
L 890.390742 130.515805 
L 890.390742 128.937939 
L 890.73091 128.937939 
L 890.753429 125.782207 
L 891.72531 125.782207 
L 891.72531 124.204341 
L 892.566739 124.204341 
L 892.566739 122.626476 
L 893.409899 122.626476 
L 893.409899 121.04861 
L 894.057144 121.04861 
L 894.095266 117.892878 
L 957.33347 117.892878 
L 957.33347 116.315012 
L 958.216432 116.315012 
L 958.302563 111.581415 
L 958.844656 111.581415 
L 958.844656 110.003549 
L 959.106635 110.003549 
L 959.106635 108.425683 
L 959.437507 108.425683 
L 959.440385 105.269951 
L 959.604419 105.269951 
L 959.604419 103.692085 
L 959.828545 103.692085 
L 959.828545 102.11422 
L 960.428125 102.11422 
L 960.428125 100.536354 
L 960.671532 100.536354 
L 960.671532 98.958488 
L 961.519325 98.958488 
L 961.519325 97.380622 
L 962.365505 97.380622 
L 962.365505 95.802756 
L 963.212937 95.802756 
L 963.212937 94.22489 
L 963.922588 94.22489 
L 963.922588 92.647024 
L 964.919597 92.647024 
L 964.919597 91.069159 
L 965.622134 91.069159 
L 965.622134 89.491293 
L 966.468975 89.491293 
L 966.468975 87.913427 
L 967.461587 87.913427 
L 967.461587 86.335561 
L 968.316404 86.335561 
L 968.316404 84.757695 
L 969.015468 84.757695 
L 969.015468 83.179829 
L 970.004753 83.179829 
L 970.004753 81.601963 
L 970.683238 81.601963 
L 970.683238 80.024098 
L 971.392232 80.024098 
L 971.392232 78.446232 
L 972.239142 78.446232 
L 972.239142 76.868366 
L 972.933766 76.868366 
L 972.933766 75.2905 
L 973.284235 75.2905 
L 973.284235 73.712634 
L 974.108757 73.712634 
L 974.108757 72.134768 
L 974.942876 72.134768 
L 974.942876 70.556902 
L 975.935319 70.556902 
L 975.935319 68.979037 
L 1044.397741 68.979037 
L 1044.397741 67.401171 
L 1044.397741 67.401171 
" clip-path="url(#p6c3c4f14ee)" style="fill: none; stroke-dasharray: 7.4,3.2; stroke-dashoffset: 0; stroke: #d8731d; stroke-width: 2"/>
   </g>
   <g id="patch_10">
    <path d="M 747.84 269.368 
L 747.84 62.352 
" style="fill: none; stroke: #000000; stroke-width: 0.8; stroke-linejoin: miter; stroke-linecap: square"/>
   </g>
   <g id="patch_11">
    <path d="M 747.84 269.368 
L 1083.6 269.368 
" style="fill: none; stroke: #000000; stroke-width: 0.8; stroke-linejoin: miter; stroke-linecap: square"/>
   </g>
  </g>
  <g id="text_34">
   <!-- Fit-first exploratory pair: request-weighted empirical CDFs -->
   <g transform="translate(343.80625 17.405813) scale(0.14 -0.14)">
    <defs>
     <path id="DejaVuSans-78" d="M 3513 3500 
L 2247 1797 
L 3578 0 
L 2900 0 
L 1881 1375 
L 863 0 
L 184 0 
L 1544 1831 
L 300 3500 
L 978 3500 
L 1906 2253 
L 2834 3500 
L 3513 3500 
z
" transform="scale(0.015625)"/>
     <path id="DejaVuSans-79" d="M 2059 -325 
Q 1816 -950 1584 -1140 
Q 1353 -1331 966 -1331 
L 506 -1331 
L 506 -850 
L 844 -850 
Q 1081 -850 1212 -737 
Q 1344 -625 1503 -206 
L 1606 56 
L 191 3500 
L 800 3500 
L 1894 763 
L 2988 3500 
L 3597 3500 
L 2059 -325 
z
" transform="scale(0.015625)"/>
     <path id="DejaVuSans-3a" d="M 750 794 
L 1409 794 
L 1409 0 
L 750 0 
L 750 794 
z
M 750 3309 
L 1409 3309 
L 1409 2516 
L 750 2516 
L 750 3309 
z
" transform="scale(0.015625)"/>
     <path id="DejaVuSans-77" d="M 269 3500 
L 844 3500 
L 1563 769 
L 2278 3500 
L 2956 3500 
L 3675 769 
L 4391 3500 
L 4966 3500 
L 4050 0 
L 3372 0 
L 2619 2869 
L 1863 0 
L 1184 0 
L 269 3500 
z
" transform="scale(0.015625)"/>
     <path id="DejaVuSans-68" d="M 3513 2113 
L 3513 0 
L 2938 0 
L 2938 2094 
Q 2938 2591 2744 2837 
Q 2550 3084 2163 3084 
Q 1697 3084 1428 2787 
Q 1159 2491 1159 1978 
L 1159 0 
L 581 0 
L 581 4863 
L 1159 4863 
L 1159 2956 
Q 1366 3272 1645 3428 
Q 1925 3584 2291 3584 
Q 2894 3584 3203 3211 
Q 3513 2838 3513 2113 
z
" transform="scale(0.015625)"/>
     <path id="DejaVuSans-43" d="M 4122 4306 
L 4122 3641 
Q 3803 3938 3442 4084 
Q 3081 4231 2675 4231 
Q 1875 4231 1450 3742 
Q 1025 3253 1025 2328 
Q 1025 1406 1450 917 
Q 1875 428 2675 428 
Q 3081 428 3442 575 
Q 3803 722 4122 1019 
L 4122 359 
Q 3791 134 3420 21 
Q 3050 -91 2638 -91 
Q 1578 -91 968 557 
Q 359 1206 359 2328 
Q 359 3453 968 4101 
Q 1578 4750 2638 4750 
Q 3056 4750 3426 4639 
Q 3797 4528 4122 4306 
z
" transform="scale(0.015625)"/>
     <path id="DejaVuSans-44" d="M 1259 4147 
L 1259 519 
L 2022 519 
Q 2988 519 3436 956 
Q 3884 1394 3884 2338 
Q 3884 3275 3436 3711 
Q 2988 4147 2022 4147 
L 1259 4147 
z
M 628 4666 
L 1925 4666 
Q 3281 4666 3915 4102 
Q 4550 3538 4550 2338 
Q 4550 1131 3912 565 
Q 3275 0 1925 0 
L 628 0 
L 628 4666 
z
" transform="scale(0.015625)"/>
    </defs>
    <use xlink:href="#DejaVuSans-46"/>
    <use xlink:href="#DejaVuSans-69" x="50.269531"/>
    <use xlink:href="#DejaVuSans-74" x="78.052734"/>
    <use xlink:href="#DejaVuSans-2d" x="117.261719"/>
    <use xlink:href="#DejaVuSans-66" x="153.345703"/>
    <use xlink:href="#DejaVuSans-69" x="188.550781"/>
    <use xlink:href="#DejaVuSans-72" x="216.333984"/>
    <use xlink:href="#DejaVuSans-73" x="257.447266"/>
    <use xlink:href="#DejaVuSans-74" x="309.546875"/>
    <use xlink:href="#DejaVuSans-20" x="348.755859"/>
    <use xlink:href="#DejaVuSans-65" x="380.542969"/>
    <use xlink:href="#DejaVuSans-78" x="440.316406"/>
    <use xlink:href="#DejaVuSans-70" x="499.496094"/>
    <use xlink:href="#DejaVuSans-6c" x="562.972656"/>
    <use xlink:href="#DejaVuSans-6f" x="590.755859"/>
    <use xlink:href="#DejaVuSans-72" x="651.9375"/>
    <use xlink:href="#DejaVuSans-61" x="693.050781"/>
    <use xlink:href="#DejaVuSans-74" x="754.330078"/>
    <use xlink:href="#DejaVuSans-6f" x="793.539062"/>
    <use xlink:href="#DejaVuSans-72" x="854.720703"/>
    <use xlink:href="#DejaVuSans-79" x="895.833984"/>
    <use xlink:href="#DejaVuSans-20" x="955.013672"/>
    <use xlink:href="#DejaVuSans-70" x="986.800781"/>
    <use xlink:href="#DejaVuSans-61" x="1050.277344"/>
    <use xlink:href="#DejaVuSans-69" x="1111.556641"/>
    <use xlink:href="#DejaVuSans-72" x="1139.339844"/>
    <use xlink:href="#DejaVuSans-3a" x="1178.703125"/>
    <use xlink:href="#DejaVuSans-20" x="1212.394531"/>
    <use xlink:href="#DejaVuSans-72" x="1244.181641"/>
    <use xlink:href="#DejaVuSans-65" x="1283.044922"/>
    <use xlink:href="#DejaVuSans-71" x="1344.568359"/>
    <use xlink:href="#DejaVuSans-75" x="1408.044922"/>
    <use xlink:href="#DejaVuSans-65" x="1471.423828"/>
    <use xlink:href="#DejaVuSans-73" x="1532.947266"/>
    <use xlink:href="#DejaVuSans-74" x="1585.046875"/>
    <use xlink:href="#DejaVuSans-2d" x="1624.255859"/>
    <use xlink:href="#DejaVuSans-77" x="1660.339844"/>
    <use xlink:href="#DejaVuSans-65" x="1742.126953"/>
    <use xlink:href="#DejaVuSans-69" x="1803.650391"/>
    <use xlink:href="#DejaVuSans-67" x="1831.433594"/>
    <use xlink:href="#DejaVuSans-68" x="1894.910156"/>
    <use xlink:href="#DejaVuSans-74" x="1958.289062"/>
    <use xlink:href="#DejaVuSans-65" x="1997.498047"/>
    <use xlink:href="#DejaVuSans-64" x="2059.021484"/>
    <use xlink:href="#DejaVuSans-20" x="2122.498047"/>
    <use xlink:href="#DejaVuSans-65" x="2154.285156"/>
    <use xlink:href="#DejaVuSans-6d" x="2215.808594"/>
    <use xlink:href="#DejaVuSans-70" x="2313.220703"/>
    <use xlink:href="#DejaVuSans-69" x="2376.697266"/>
    <use xlink:href="#DejaVuSans-72" x="2404.480469"/>
    <use xlink:href="#DejaVuSans-69" x="2445.59375"/>
    <use xlink:href="#DejaVuSans-63" x="2473.376953"/>
    <use xlink:href="#DejaVuSans-61" x="2528.357422"/>
    <use xlink:href="#DejaVuSans-6c" x="2589.636719"/>
    <use xlink:href="#DejaVuSans-20" x="2617.419922"/>
    <use xlink:href="#DejaVuSans-43" x="2649.207031"/>
    <use xlink:href="#DejaVuSans-44" x="2719.03125"/>
    <use xlink:href="#DejaVuSans-46" x="2796.033203"/>
    <use xlink:href="#DejaVuSans-73" x="2853.552734"/>
   </g>
  </g>
  <g id="text_35">
   <!-- Same 128 seen H128 inputs; one ordered pair. Natural output sequences may differ. No pooling, confidence interval, equal-work, or per-action causal claim. -->
   <g style="fill: #444444" transform="translate(194.826094 331.452281) scale(0.09 -0.09)">
    <defs>
     <path id="DejaVuSans-53" d="M 3425 4513 
L 3425 3897 
Q 3066 4069 2747 4153 
Q 2428 4238 2131 4238 
Q 1616 4238 1336 4038 
Q 1056 3838 1056 3469 
Q 1056 3159 1242 3001 
Q 1428 2844 1947 2747 
L 2328 2669 
Q 3034 2534 3370 2195 
Q 3706 1856 3706 1288 
Q 3706 609 3251 259 
Q 2797 -91 1919 -91 
Q 1588 -91 1214 -16 
Q 841 59 441 206 
L 441 856 
Q 825 641 1194 531 
Q 1563 422 1919 422 
Q 2459 422 2753 634 
Q 3047 847 3047 1241 
Q 3047 1584 2836 1778 
Q 2625 1972 2144 2069 
L 1759 2144 
Q 1053 2284 737 2584 
Q 422 2884 422 3419 
Q 422 4038 858 4394 
Q 1294 4750 2059 4750 
Q 2388 4750 2728 4690 
Q 3069 4631 3425 4513 
z
" transform="scale(0.015625)"/>
     <path id="DejaVuSans-48" d="M 628 4666 
L 1259 4666 
L 1259 2753 
L 3553 2753 
L 3553 4666 
L 4184 4666 
L 4184 0 
L 3553 0 
L 3553 2222 
L 1259 2222 
L 1259 0 
L 628 0 
L 628 4666 
z
" transform="scale(0.015625)"/>
     <path id="DejaVuSans-3b" d="M 750 3309 
L 1409 3309 
L 1409 2516 
L 750 2516 
L 750 3309 
z
M 750 794 
L 1409 794 
L 1409 256 
L 897 -744 
L 494 -744 
L 750 256 
L 750 794 
z
" transform="scale(0.015625)"/>
     <path id="DejaVuSans-4e" d="M 628 4666 
L 1478 4666 
L 3547 763 
L 3547 4666 
L 4159 4666 
L 4159 0 
L 3309 0 
L 1241 3903 
L 1241 0 
L 628 0 
L 628 4666 
z
" transform="scale(0.015625)"/>
     <path id="DejaVuSans-2c" d="M 750 794 
L 1409 794 
L 1409 256 
L 897 -744 
L 494 -744 
L 750 256 
L 750 794 
z
" transform="scale(0.015625)"/>
    </defs>
    <use xlink:href="#DejaVuSans-53"/>
    <use xlink:href="#DejaVuSans-61" x="63.476562"/>
    <use xlink:href="#DejaVuSans-6d" x="124.755859"/>
    <use xlink:href="#DejaVuSans-65" x="222.167969"/>
    <use xlink:href="#DejaVuSans-20" x="283.691406"/>
    <use xlink:href="#DejaVuSans-31" x="315.478516"/>
    <use xlink:href="#DejaVuSans-32" x="379.101562"/>
    <use xlink:href="#DejaVuSans-38" x="442.724609"/>
    <use xlink:href="#DejaVuSans-20" x="506.347656"/>
    <use xlink:href="#DejaVuSans-73" x="538.134766"/>
    <use xlink:href="#DejaVuSans-65" x="590.234375"/>
    <use xlink:href="#DejaVuSans-65" x="651.757812"/>
    <use xlink:href="#DejaVuSans-6e" x="713.28125"/>
    <use xlink:href="#DejaVuSans-20" x="776.660156"/>
    <use xlink:href="#DejaVuSans-48" x="808.447266"/>
    <use xlink:href="#DejaVuSans-31" x="883.642578"/>
    <use xlink:href="#DejaVuSans-32" x="947.265625"/>
    <use xlink:href="#DejaVuSans-38" x="1010.888672"/>
    <use xlink:href="#DejaVuSans-20" x="1074.511719"/>
    <use xlink:href="#DejaVuSans-69" x="1106.298828"/>
    <use xlink:href="#DejaVuSans-6e" x="1134.082031"/>
    <use xlink:href="#DejaVuSans-70" x="1197.460938"/>
    <use xlink:href="#DejaVuSans-75" x="1260.9375"/>
    <use xlink:href="#DejaVuSans-74" x="1324.316406"/>
    <use xlink:href="#DejaVuSans-73" x="1363.525391"/>
    <use xlink:href="#DejaVuSans-3b" x="1415.625"/>
    <use xlink:href="#DejaVuSans-20" x="1449.316406"/>
    <use xlink:href="#DejaVuSans-6f" x="1481.103516"/>
    <use xlink:href="#DejaVuSans-6e" x="1542.285156"/>
    <use xlink:href="#DejaVuSans-65" x="1605.664062"/>
    <use xlink:href="#DejaVuSans-20" x="1667.1875"/>
    <use xlink:href="#DejaVuSans-6f" x="1698.974609"/>
    <use xlink:href="#DejaVuSans-72" x="1760.15625"/>
    <use xlink:href="#DejaVuSans-64" x="1799.519531"/>
    <use xlink:href="#DejaVuSans-65" x="1862.996094"/>
    <use xlink:href="#DejaVuSans-72" x="1924.519531"/>
    <use xlink:href="#DejaVuSans-65" x="1963.382812"/>
    <use xlink:href="#DejaVuSans-64" x="2024.90625"/>
    <use xlink:href="#DejaVuSans-20" x="2088.382812"/>
    <use xlink:href="#DejaVuSans-70" x="2120.169922"/>
    <use xlink:href="#DejaVuSans-61" x="2183.646484"/>
    <use xlink:href="#DejaVuSans-69" x="2244.925781"/>
    <use xlink:href="#DejaVuSans-72" x="2272.708984"/>
    <use xlink:href="#DejaVuSans-2e" x="2304.697266"/>
    <use xlink:href="#DejaVuSans-20" x="2336.484375"/>
    <use xlink:href="#DejaVuSans-4e" x="2368.271484"/>
    <use xlink:href="#DejaVuSans-61" x="2443.076172"/>
    <use xlink:href="#DejaVuSans-74" x="2504.355469"/>
    <use xlink:href="#DejaVuSans-75" x="2543.564453"/>
    <use xlink:href="#DejaVuSans-72" x="2606.943359"/>
    <use xlink:href="#DejaVuSans-61" x="2648.056641"/>
    <use xlink:href="#DejaVuSans-6c" x="2709.335938"/>
    <use xlink:href="#DejaVuSans-20" x="2737.119141"/>
    <use xlink:href="#DejaVuSans-6f" x="2768.90625"/>
    <use xlink:href="#DejaVuSans-75" x="2830.087891"/>
    <use xlink:href="#DejaVuSans-74" x="2893.466797"/>
    <use xlink:href="#DejaVuSans-70" x="2932.675781"/>
    <use xlink:href="#DejaVuSans-75" x="2996.152344"/>
    <use xlink:href="#DejaVuSans-74" x="3059.53125"/>
    <use xlink:href="#DejaVuSans-20" x="3098.740234"/>
    <use xlink:href="#DejaVuSans-73" x="3130.527344"/>
    <use xlink:href="#DejaVuSans-65" x="3182.626953"/>
    <use xlink:href="#DejaVuSans-71" x="3244.150391"/>
    <use xlink:href="#DejaVuSans-75" x="3307.626953"/>
    <use xlink:href="#DejaVuSans-65" x="3371.005859"/>
    <use xlink:href="#DejaVuSans-6e" x="3432.529297"/>
    <use xlink:href="#DejaVuSans-63" x="3495.908203"/>
    <use xlink:href="#DejaVuSans-65" x="3550.888672"/>
    <use xlink:href="#DejaVuSans-73" x="3612.412109"/>
    <use xlink:href="#DejaVuSans-20" x="3664.511719"/>
    <use xlink:href="#DejaVuSans-6d" x="3696.298828"/>
    <use xlink:href="#DejaVuSans-61" x="3793.710938"/>
    <use xlink:href="#DejaVuSans-79" x="3854.990234"/>
    <use xlink:href="#DejaVuSans-20" x="3914.169922"/>
    <use xlink:href="#DejaVuSans-64" x="3945.957031"/>
    <use xlink:href="#DejaVuSans-69" x="4009.433594"/>
    <use xlink:href="#DejaVuSans-66" x="4037.216797"/>
    <use xlink:href="#DejaVuSans-66" x="4072.421875"/>
    <use xlink:href="#DejaVuSans-65" x="4107.626953"/>
    <use xlink:href="#DejaVuSans-72" x="4169.150391"/>
    <use xlink:href="#DejaVuSans-2e" x="4201.138672"/>
    <use xlink:href="#DejaVuSans-20" x="4232.925781"/>
    <use xlink:href="#DejaVuSans-4e" x="4264.712891"/>
    <use xlink:href="#DejaVuSans-6f" x="4339.517578"/>
    <use xlink:href="#DejaVuSans-20" x="4400.699219"/>
    <use xlink:href="#DejaVuSans-70" x="4432.486328"/>
    <use xlink:href="#DejaVuSans-6f" x="4495.962891"/>
    <use xlink:href="#DejaVuSans-6f" x="4557.144531"/>
    <use xlink:href="#DejaVuSans-6c" x="4618.326172"/>
    <use xlink:href="#DejaVuSans-69" x="4646.109375"/>
    <use xlink:href="#DejaVuSans-6e" x="4673.892578"/>
    <use xlink:href="#DejaVuSans-67" x="4737.271484"/>
    <use xlink:href="#DejaVuSans-2c" x="4800.748047"/>
    <use xlink:href="#DejaVuSans-20" x="4832.535156"/>
    <use xlink:href="#DejaVuSans-63" x="4864.322266"/>
    <use xlink:href="#DejaVuSans-6f" x="4919.302734"/>
    <use xlink:href="#DejaVuSans-6e" x="4980.484375"/>
    <use xlink:href="#DejaVuSans-66" x="5043.863281"/>
    <use xlink:href="#DejaVuSans-69" x="5079.068359"/>
    <use xlink:href="#DejaVuSans-64" x="5106.851562"/>
    <use xlink:href="#DejaVuSans-65" x="5170.328125"/>
    <use xlink:href="#DejaVuSans-6e" x="5231.851562"/>
    <use xlink:href="#DejaVuSans-63" x="5295.230469"/>
    <use xlink:href="#DejaVuSans-65" x="5350.210938"/>
    <use xlink:href="#DejaVuSans-20" x="5411.734375"/>
    <use xlink:href="#DejaVuSans-69" x="5443.521484"/>
    <use xlink:href="#DejaVuSans-6e" x="5471.304688"/>
    <use xlink:href="#DejaVuSans-74" x="5534.683594"/>
    <use xlink:href="#DejaVuSans-65" x="5573.892578"/>
    <use xlink:href="#DejaVuSans-72" x="5635.416016"/>
    <use xlink:href="#DejaVuSans-76" x="5676.529297"/>
    <use xlink:href="#DejaVuSans-61" x="5735.708984"/>
    <use xlink:href="#DejaVuSans-6c" x="5796.988281"/>
    <use xlink:href="#DejaVuSans-2c" x="5824.771484"/>
    <use xlink:href="#DejaVuSans-20" x="5856.558594"/>
    <use xlink:href="#DejaVuSans-65" x="5888.345703"/>
    <use xlink:href="#DejaVuSans-71" x="5949.869141"/>
    <use xlink:href="#DejaVuSans-75" x="6013.345703"/>
    <use xlink:href="#DejaVuSans-61" x="6076.724609"/>
    <use xlink:href="#DejaVuSans-6c" x="6138.003906"/>
    <use xlink:href="#DejaVuSans-2d" x="6165.787109"/>
    <use xlink:href="#DejaVuSans-77" x="6201.871094"/>
    <use xlink:href="#DejaVuSans-6f" x="6283.658203"/>
    <use xlink:href="#DejaVuSans-72" x="6344.839844"/>
    <use xlink:href="#DejaVuSans-6b" x="6385.953125"/>
    <use xlink:href="#DejaVuSans-2c" x="6443.863281"/>
    <use xlink:href="#DejaVuSans-20" x="6475.650391"/>
    <use xlink:href="#DejaVuSans-6f" x="6507.4375"/>
    <use xlink:href="#DejaVuSans-72" x="6568.619141"/>
    <use xlink:href="#DejaVuSans-20" x="6609.732422"/>
    <use xlink:href="#DejaVuSans-70" x="6641.519531"/>
    <use xlink:href="#DejaVuSans-65" x="6704.996094"/>
    <use xlink:href="#DejaVuSans-72" x="6766.519531"/>
    <use xlink:href="#DejaVuSans-2d" x="6801.257812"/>
    <use xlink:href="#DejaVuSans-61" x="6837.341797"/>
    <use xlink:href="#DejaVuSans-63" x="6898.621094"/>
    <use xlink:href="#DejaVuSans-74" x="6953.601562"/>
    <use xlink:href="#DejaVuSans-69" x="6992.810547"/>
    <use xlink:href="#DejaVuSans-6f" x="7020.59375"/>
    <use xlink:href="#DejaVuSans-6e" x="7081.775391"/>
    <use xlink:href="#DejaVuSans-20" x="7145.154297"/>
    <use xlink:href="#DejaVuSans-63" x="7176.941406"/>
    <use xlink:href="#DejaVuSans-61" x="7231.921875"/>
    <use xlink:href="#DejaVuSans-75" x="7293.201172"/>
    <use xlink:href="#DejaVuSans-73" x="7356.580078"/>
    <use xlink:href="#DejaVuSans-61" x="7408.679688"/>
    <use xlink:href="#DejaVuSans-6c" x="7469.958984"/>
    <use xlink:href="#DejaVuSans-20" x="7497.742188"/>
    <use xlink:href="#DejaVuSans-63" x="7529.529297"/>
    <use xlink:href="#DejaVuSans-6c" x="7584.509766"/>
    <use xlink:href="#DejaVuSans-61" x="7612.292969"/>
    <use xlink:href="#DejaVuSans-69" x="7673.572266"/>
    <use xlink:href="#DejaVuSans-6d" x="7701.355469"/>
    <use xlink:href="#DejaVuSans-2e" x="7798.767578"/>
   </g>
  </g>
 </g>
 <defs>
  <clipPath id="p59fd0a2545">
   <rect x="47.72" y="62.352" width="335.76" height="207.016"/>
  </clipPath>
  <clipPath id="p2448404815">
   <rect x="397.78" y="62.352" width="335.76" height="207.016"/>
  </clipPath>
  <clipPath id="p6c3c4f14ee">
   <rect x="747.84" y="62.352" width="335.76" height="207.016"/>
  </clipPath>
 </defs>
</svg>
